<svg id="圖層_1" data-name="圖層 1" xmlns="http://www.w3.org/2000/svg" viewBox="0 0 2263 480"><defs><style>.cls-1{fill:#262262;}.cls-2{fill:none;stroke:#262262;stroke-miterlimit:10;stroke-width:1.95px;}.cls-3{fill:#1b2a51;}.cls-4{fill:#0c6fa7;}</style></defs><path class="cls-1" d="M593.3,411.52h-2.81q-2.25-7.63-7.07-20.83l-9-24.63q-4.2-11.43-5.84-14.26a11.41,11.41,0,0,0-3.23-3.85,9.93,9.93,0,0,0-4.44-1.26c-.79-.07-1.19-.37-1.19-.91s.4-1,1.19-1h25c1.56,0,2.34.28,2.34.86q0,1.11-1.53,1.11-6.3,0-6.3,5.71a25.94,25.94,0,0,0,.57,4.35,63.17,63.17,0,0,0,2,7.34q1.39,4.35,6.06,17.82T595,398.58l10.22-30q4.39-12.75,4.4-16c0-3.54-2.08-5.5-6.21-5.87-.83-.07-1.25-.39-1.25-1a.7.7,0,0,1,.46-.73,10.6,10.6,0,0,1,2.65-.18h16a15.34,15.34,0,0,1,2.6.12c.3.09.45.33.45.74,0,.6-.62,1-1.86,1.21a8.21,8.21,0,0,0-5.37,2.76,33.51,33.51,0,0,0-3.44,5.26q-1.65,3.06-8.81,24.35Q602.23,386.75,593.3,411.52Z"/><path class="cls-1" d="M624,376.88q0-6.83,3.91-15a34.48,34.48,0,0,1,11.44-13.48,28.71,28.71,0,0,1,17-5.31,27.6,27.6,0,0,1,21.85,10A34.09,34.09,0,0,1,686.74,376a36.12,36.12,0,0,1-9.54,24.5q-9.56,10.84-23,10.85a28.06,28.06,0,0,1-21.56-9.51Q624,392.3,624,376.88Zm10.65-1.64A63.76,63.76,0,0,0,637,392.17q2.38,8.67,7.49,12.6a17.61,17.61,0,0,0,10.92,3.92q9.39,0,15.05-9.69a43.83,43.83,0,0,0,5.65-22.45,40.5,40.5,0,0,0-5.77-21.69q-5.77-9.33-15.07-9.33a15.37,15.37,0,0,0-11.69,5,30.27,30.27,0,0,0-6.82,11.92A43.53,43.53,0,0,0,634.61,375.24Z"/><path class="cls-1" d="M747.15,410.66c-1.56.07-2.46.1-2.68.1q-1.77,0-6.4-.17t-19.26-.18H706.67c-.45,0-2.07.08-4.88.25s-4.5.26-5.11.26c-2.42,0-3.63-.34-3.63-1s.48-.83,1.43-.87c3.09-.2,5.23-.9,6.45-2.09a9.77,9.77,0,0,0,2.48-5.17q.68-3.36.67-18.19l0-18.12a69,69,0,0,0-.74-12.3,9,9,0,0,0-3.06-5.34,9.56,9.56,0,0,0-5.23-2.1c-1-.11-1.53-.47-1.53-1.09s.47-.93,1.39-.93c.22,0,.63,0,1.24.05q7.59.5,17.76.5l8.41-.15c.86,0,1.29.34,1.29,1s-.47.91-1.39.91a10.47,10.47,0,0,0-5.66,1.42,7.12,7.12,0,0,0-3,3.26q-.74,1.85-.74,7.21l-.38,23.92.1,13.35a39.45,39.45,0,0,0,.5,8.09,7.08,7.08,0,0,0,2.08,3.36c1.05,1,3,1.49,5.73,1.49l8.55-.3q6.54-1,11.75-6.78c3.47-3.87,5.78-7.35,6.93-10.41.35-.88.77-1.32,1.28-1.32s.8.41.8,1.22-.45,4.32-1.36,10.13S747.37,409.82,747.15,410.66Z"/><path class="cls-1" d="M772.12,376.73a44.24,44.24,0,0,0,7.3-6.25q2.67-3,8.39-9.48t6.82-8.67a8,8,0,0,0,1.12-3.11,2.62,2.62,0,0,0-1.26-2.1,6.86,6.86,0,0,0-3-1.24c-1.27-.2-1.91-.59-1.91-1.16s.53-.91,1.58-.91c.22,0,.57,0,1.05-.05q1.77-.11,10.6-.1,6.06,0,8.45.12c1.59.09,2.39.4,2.39.94s-.45.93-1.34,1.06a21.63,21.63,0,0,0-7.71,2.55q-3.27,1.91-10.15,8.9a141,141,0,0,0-11.84,13.58,23.16,23.16,0,0,1,9.29,1.65,14,14,0,0,1,6.27,5.67q2.49,4,4.31,13.65,3.15,16.16,11.31,16.86c1.21.1,1.82.44,1.82,1s-.29.74-.86.74l-4.4-.09q-9.74,0-11.17.19a17.73,17.73,0,0,1-3-6.47q-.69-3.18-1.89-11.18A56,56,0,0,0,790.81,380q-2.41-5.93-7.52-5.92a12.92,12.92,0,0,0-7,2.35c-2.41,1.57-3.82,2.73-4.2,3.49s-.57,5.22-.57,13.38q0,8.6.5,10.62a5.23,5.23,0,0,0,2.2,3.18,9.7,9.7,0,0,0,4.55,1.47c1.15.13,1.72.5,1.72,1.11s-.39.86-1.19.86l-.57,0c-.9-.05-4.14-.07-9.74-.07q-10.12,0-11.46.2a7.12,7.12,0,0,1-1,.1c-.74,0-1.1-.3-1.1-.91s.44-.87,1.33-1a7,7,0,0,0,3.8-1.49,5.15,5.15,0,0,0,1.62-2.63q.36-1.49,1-10c.39-5.66.6-10.38.6-14.16q0-7.49-.15-12.69c-.1-3.47-.28-7.26-.57-11.36s-.61-6.55-1-7.38a4.53,4.53,0,0,0-1.49-1.92c-.63-.46-2.13-.83-4.48-1.14-.8-.1-1.2-.4-1.2-.91,0-.74.73-1.11,2.2-1.11l3.86-.05,16.95-.2q1.29,0,1.29.84a.74.74,0,0,1-.43.71,11.79,11.79,0,0,1-2.62.52,12.35,12.35,0,0,0-2.82.58,3.09,3.09,0,0,0-1.14,1.32,7.48,7.48,0,0,0-.58,3.41Q771.59,356.86,772.12,376.73Z"/><path class="cls-1" d="M855.3,347.8A7.06,7.06,0,0,0,857,345c.25-.81.62-1.21,1.09-1.21a1.31,1.31,0,0,1,.86.5c.23,1.21.54,3.66,1,7.33l1.14,9.51c0,.61-.35.91-1.05.91-.38,0-.71-.33-1-1a27.67,27.67,0,0,0-7.5-11,16.09,16.09,0,0,0-10.83-4.35q-5.78,0-8.72,3.69a12.37,12.37,0,0,0-2.94,7.84q0,5.05,3.21,7.74T845.41,371a53.38,53.38,0,0,1,11,4.71,18.78,18.78,0,0,1,6.14,6.37,16.71,16.71,0,0,1,2.48,8.8q0,8-6.26,14.31a20.71,20.71,0,0,1-15.33,6.32q-8.16,0-16.42-5.41a6.45,6.45,0,0,0-2.1,3.34c-.26,1.08-.67,1.62-1.24,1.62s-.88-.69-1.1-2.08-.69-7.92-1.38-19.62a.92.92,0,0,1,1-.61c.47,0,.85.38,1.14,1.12q7.35,19.57,20.53,19.57,6.55,0,10.25-4.17a14.06,14.06,0,0,0,3.7-9.59,12.67,12.67,0,0,0-2-6.88,15.42,15.42,0,0,0-5.26-5.05,59.32,59.32,0,0,0-10.33-4.3q-9.07-3.09-12.35-5.84a17.28,17.28,0,0,1-4.8-6.22,16.72,16.72,0,0,1-1.52-6.7q0-6.73,5.75-11.94a20.26,20.26,0,0,1,14.11-5.21,22.8,22.8,0,0,1,6.61,1.06A35.6,35.6,0,0,1,855.3,347.8Z"/><path class="cls-1" d="M930.69,347.8a7,7,0,0,0,1.72-2.83c.26-.81.63-1.21,1.1-1.21a1.31,1.31,0,0,1,.86.5c.22,1.21.54,3.66,1,7.33l1.15,9.51c0,.61-.35.91-1.05.91-.38,0-.71-.33-1-1a27.67,27.67,0,0,0-7.5-11,16.11,16.11,0,0,0-10.83-4.35q-5.79,0-8.72,3.69a12.37,12.37,0,0,0-2.94,7.84q0,5.05,3.2,7.74T920.81,371a53.63,53.63,0,0,1,11,4.71A18.75,18.75,0,0,1,938,382a16.63,16.63,0,0,1,2.49,8.8q0,8-6.26,14.31a20.71,20.71,0,0,1-15.33,6.32q-8.16,0-16.42-5.41a6.38,6.38,0,0,0-2.1,3.34c-.26,1.08-.67,1.62-1.24,1.62s-.88-.69-1.1-2.08-.69-7.92-1.39-19.62a.94.94,0,0,1,1-.61c.47,0,.85.38,1.14,1.12q7.35,19.57,20.53,19.57,6.56,0,10.25-4.17a14.05,14.05,0,0,0,3.69-9.59,12.66,12.66,0,0,0-2-6.88,15.42,15.42,0,0,0-5.26-5.05,59.32,59.32,0,0,0-10.33-4.3q-9.07-3.09-12.35-5.84a17.28,17.28,0,0,1-4.8-6.22,16.72,16.72,0,0,1-1.52-6.7q0-6.73,5.75-11.94a20.26,20.26,0,0,1,14.11-5.21,22.8,22.8,0,0,1,6.61,1.06A35.29,35.29,0,0,1,930.69,347.8Z"/><path class="cls-1" d="M980.69,375.82a138.89,138.89,0,0,0,8.14-11.33q5.46-8.19,6.44-10.19a7.69,7.69,0,0,0,1-3.16,3.75,3.75,0,0,0-2-3.31,7.48,7.48,0,0,0-4-1.24c-1.08,0-1.63-.31-1.63-.91s.91-1,2.73-1h18c1.65,0,2.48.35,2.48,1.06s-.37.86-1.1.86a11.5,11.5,0,0,0-5.42,1.36c-1.73.91-3.84,3-6.33,6.12L990.66,366q-6.54,9.3-7.06,10.92-.76,2.38-.76,12.59,0,13.56,1.07,16.09c.72,1.68,3,2.71,7,3.08,1,.1,1.52.44,1.52,1s-.55,1-1.67,1l-12.87-.3c-3.09,0-5.63.07-7.6.2q-2.4.21-3.06.21c-1.21,0-1.82-.34-1.82-1s.45-.82,1.35-.86c3.07-.13,5.11-1.34,6.14-3.64s1.54-5.68,1.54-10.16a67.13,67.13,0,0,0-.86-11.94q-.19-1.15-4.11-8.27t-9.58-15.72q-5.65-8.62-8.09-10.5a9.11,9.11,0,0,0-4.73-2.07c-1.14-.1-1.71-.44-1.71-1a.72.72,0,0,1,.45-.74,11.18,11.18,0,0,1,2.7-.17h20.86a12,12,0,0,1,2.58.15c.29.1.43.37.43.81s-.4.84-1.19.91q-6,.51-6,3.84,0,1.72,2.2,5.41T980.69,375.82Z"/><path class="cls-1" d="M1050.92,347.8a7,7,0,0,0,1.72-2.83c.26-.81.62-1.21,1.1-1.21a1.33,1.33,0,0,1,.86.5c.22,1.21.54,3.66,1,7.33l1.15,9.51c0,.61-.35.91-1,.91-.38,0-.71-.33-1-1a27.67,27.67,0,0,0-7.5-11,16.11,16.11,0,0,0-10.84-4.35q-5.77,0-8.71,3.69a12.37,12.37,0,0,0-2.94,7.84q0,5.05,3.2,7.74T1041,371a53.63,53.63,0,0,1,11,4.71,18.75,18.75,0,0,1,6.13,6.37,16.71,16.71,0,0,1,2.48,8.8q0,8-6.25,14.31a20.71,20.71,0,0,1-15.33,6.32q-8.16,0-16.43-5.41a6.51,6.51,0,0,0-2.1,3.34c-.25,1.08-.66,1.62-1.24,1.62s-.87-.69-1.09-2.08-.69-7.92-1.39-19.62a.93.93,0,0,1,1-.61c.47,0,.85.38,1.14,1.12q7.35,19.57,20.53,19.57,6.54,0,10.24-4.17a14,14,0,0,0,3.7-9.59,12.67,12.67,0,0,0-2-6.88,15.3,15.3,0,0,0-5.25-5.05,59.15,59.15,0,0,0-10.34-4.3q-9.08-3.09-12.34-5.84a17.28,17.28,0,0,1-4.8-6.22,16.57,16.57,0,0,1-1.53-6.7q0-6.73,5.76-11.94a20.25,20.25,0,0,1,14.11-5.21,22.8,22.8,0,0,1,6.61,1.06A35.29,35.29,0,0,1,1050.92,347.8Z"/><path class="cls-1" d="M1093.85,347c-2.49-.13-4.24-.2-5.25-.2q-10.33,0-15,4.57t-5.4,8.12c-.16.85-.59,1.27-1.28,1.27a1.18,1.18,0,0,1-.9-.49,147.21,147.21,0,0,1,1.86-16.25l2.91-.05q3.72,0,10,.4,6.74.4,20.63.41,14.22,0,18.53-.36,3.91-.41,10.74-.4a72.25,72.25,0,0,1,.77,7.58c.18,3,.38,5.11.57,6.33a7.69,7.69,0,0,1,0,.85c0,.82-.33,1.22-1,1.22a1.33,1.33,0,0,1-1-.43,24.71,24.71,0,0,1-1.84-2.86,22.58,22.58,0,0,0-5.16-6.19,13.53,13.53,0,0,0-6-2.71,104.86,104.86,0,0,0-13.33-.81q-.57,7.63-.57,17.45,0,32.46,1.31,38.28t9.38,5.82c1.31,0,2,.29,2,.86s-.62,1-1.86,1h-29.37q-1.14,0-1.14-1c0-.64.74-1,2.24-1a8.37,8.37,0,0,0,6.09-2.25,9.36,9.36,0,0,0,2.67-6.1q.36-3.84.36-22.2Q1094.85,362.27,1093.85,347Z"/><path class="cls-1" d="M1188.73,344.82a156.42,156.42,0,0,1,2.72,15.88c-.16.27-.33.4-.51.4a1,1,0,0,1-.71-.4,41.31,41.31,0,0,0-6.31-8.55,19.18,19.18,0,0,0-6-4.17q-3-1.25-10.44-1.24a56.06,56.06,0,0,0-11,.86,3.3,3.3,0,0,0-.38,1.87c0,.23,0,.65-.1,1.26q-.47,4-.47,21.91c0,.5,0,1.21.09,2.12,2.42.1,4.08.15,5,.15,4,0,6.92-.64,8.72-1.91s3.37-4,4.71-8.2c.22-.71.54-1.07,1-1.07q.9,0,.9,1.47l-.19,2c-.26,2.67-.38,5.42-.38,8.26q0,6.88.23,12.41c0,1.15-.29,1.73-.87,1.73-.43,0-.72-.41-.88-1.22q-1-6-4.22-8.6t-13.94-2.63q-.13,3.7-.14,11.94,0,10.67.72,13.55a7.33,7.33,0,0,0,3.44,4.58c1.81,1.13,4.89,1.69,9.22,1.69q18.59,0,24-13.55c.44-1.11.9-1.67,1.37-1.67s.76.37.76,1.11a4.11,4.11,0,0,1-.24,1.32q-.29,1-1.38,7.18c-.17.88-.77,3.51-1.82,7.89l-20-.05q-4.29,0-12.63-.38t-14.75-.41q-6.42,0-6.71-.27a.74.74,0,0,1-.28-.56c0-.67.52-1,1.57-1q5.31,0,7-3t1.67-14.5l0-10.36.14-9.71q0-2.92-.31-11.09t-.58-9.32a4.65,4.65,0,0,0-1.48-2.3c-.81-.76-2.6-1.52-5.37-2.3-.82-.24-1.24-.6-1.24-1.11s.56-.91,1.67-.91l9.74.55q5.16.25,25.36.26Q1188.45,344.77,1188.73,344.82Z"/><path class="cls-1" d="M1221.2,344.21q4.83,11.09,9,19.59,5,10.17,7.81,16.9a121.1,121.1,0,0,0,6.52,13.31q9.88-17.36,22.94-49.8l19,.05c.66.11,1,.42,1,.94s-.38.81-1.15.88c-3.37.31-5.62,1-6.75,2.15s-1.83,3-2.11,5.69-.53,7.62-.78,14.87-.38,13.28-.38,18.1q0,13.92.19,16.21a5.47,5.47,0,0,0,1.62,3.67q1.44,1.37,5.59,2c.79.14,1.19.46,1.19,1s-.49.76-1.48.76l-18.57,0H1260c-1.09,0-1.63-.27-1.63-.81s.37-.76,1.1-.86q4-.56,5.32-1.57a6.25,6.25,0,0,0,2-3.62q.65-2.6.65-13l.9-24.29.48-12c0-.91-.13-1.36-.38-1.36s-.7.27-1,.81L1258,373.51q-9.08,19-11.14,24.3l-3,7.64a27.64,27.64,0,0,1-1.67,3.82.87.87,0,0,1-.67.33c-.38,0-.7-.44-1-1.31q-.85-3.15-8.84-20-4.15-9.45-10-21.61t-6.28-12.67q-.48-.54-.72-.54c-.32,0-.48.43-.48,1.27l-.52,30.64-.15,10.11q0,8,2.08,10.52a7.32,7.32,0,0,0,5.94,2.48q2.49,0,2.49,1.11,0,.81-1.2.81l-1,0-3.1,0-6.74,0c-2.92,0-6.7.17-11.31.51-.38-.28-.58-.54-.58-.81,0-.68.56-1,1.68-1.07q4.77-.15,7-3.34t2.24-14.27l-.1-8.91.67-22.57q0-7.89-2.19-10.8a9.18,9.18,0,0,0-6.45-3.47c-1.21-.17-1.81-.51-1.81-1s.44-.88,1.33-.88c.48,0,1,0,1.72.05Z"/><path class="cls-1" d="M1320.13,343.71l8.71.2,13.35-.2c1.59,0,2.39.33,2.39,1q0,.75-1.29,1-5.3.7-6.62,4t-1.31,24.68q0,7.85.38,17.65t.86,11.74a6.06,6.06,0,0,0,1.82,3.13q1.33,1.21,5,1.72,1.2.15,1.2,1c0,.61-.37.91-1.1.91l-11.87-.1-10.09.15c-1.12,0-1.68-.33-1.68-1s.45-1.06,1.34-1.06c3-.07,4.7-1.11,5.21-3.14s.76-8.47.76-19.37q0-15.78-.26-25.54t-1.56-11.93q-1.29-2.17-4.86-2.73c-.89-.17-1.34-.56-1.34-1.16S1319.46,343.71,1320.13,343.71Z"/><path class="cls-1" d="M1367.69,344.56q2.85,4.11,9.93,12.7L1392.9,376l14.7,18q.48-9.15.48-23.76,0-11-.43-14.7a9.8,9.8,0,0,0-10-8.77c-1.28,0-1.92-.29-1.92-.86a.77.77,0,0,1,.41-.73,42,42,0,0,1,6.42-.46q6-.23,10.12-.23l6.45.05h1.05c1,0,1.48.3,1.48.89s-.43.84-1.29.94c-3.21.37-5.53,1.25-6.94,2.65a9.57,9.57,0,0,0-2.53,6q-.42,3.95-.41,26.57l-.47,26.73c0,1.34-.31,2-.94,2a1.57,1.57,0,0,1-.66-.23,51.47,51.47,0,0,1-4.28-5.11q-3.87-4.87-9.53-11.7t-8.9-11.08q-7.12-9.15-9-11.27-6.93-7.8-8.16-10c-.55-1-1-1.52-1.49-1.52s-.52.66-.52,2l.09,7.84q0,14.91.77,23.81t1.6,10.45a10.21,10.21,0,0,0,2.91,3.11,7.26,7.26,0,0,0,4.42,1.57c2.1,0,3.15.4,3.15,1.21,0,.61-.59.91-1.77.91l-23-.05c-1.09,0-1.63-.29-1.63-.86s.53-1,1.58-1q5.86,0,7.83-2.76t2-11.71l-.39-17.75q0-15.72-.81-18.53a24.45,24.45,0,0,0-3.65-6.83c-1.9-2.68-4.05-4.19-6.47-4.52-1.08-.14-1.62-.44-1.62-.91,0-.65.7-1,2.1-1Z"/><path class="cls-1" d="M1453.44,347c-2.48-.13-4.23-.2-5.25-.2q-10.32,0-15,4.57t-5.39,8.12c-.16.85-.59,1.27-1.28,1.27a1.18,1.18,0,0,1-.9-.49,144.8,144.8,0,0,1,1.86-16.25l2.91-.05q3.72,0,10,.4,6.73.4,20.63.41,14.22,0,18.52-.36,3.92-.41,10.75-.4a72.29,72.29,0,0,1,.76,7.58c.19,3,.38,5.11.58,6.33a7.69,7.69,0,0,1,0,.85c0,.82-.33,1.22-1,1.22a1.3,1.3,0,0,1-1-.43,23.33,23.33,0,0,1-1.84-2.86,22.94,22.94,0,0,0-5.16-6.19,13.63,13.63,0,0,0-6-2.71,105,105,0,0,0-13.33-.81q-.59,7.63-.58,17.45,0,32.46,1.32,38.28t9.38,5.82c1.3,0,2,.29,2,.86s-.62,1-1.87,1h-29.36c-.76,0-1.15-.32-1.15-1s.75-1,2.25-1a8.39,8.39,0,0,0,6.09-2.25,9.4,9.4,0,0,0,2.67-6.1q.36-3.84.36-22.2Q1454.45,362.27,1453.44,347Z"/><path class="cls-1" d="M1548.32,344.82A156.42,156.42,0,0,1,1551,360.7c-.15.27-.32.4-.51.4a1,1,0,0,1-.71-.4,41,41,0,0,0-6.31-8.55,19.18,19.18,0,0,0-6-4.17q-3-1.25-10.44-1.24a56.06,56.06,0,0,0-11,.86,3.3,3.3,0,0,0-.38,1.87q0,.34-.09,1.26-.48,4-.48,21.91c0,.5,0,1.21.1,2.12,2.41.1,4.07.15,5,.15q6,0,8.72-1.91t4.7-8.2c.22-.71.54-1.07,1-1.07q.9,0,.9,1.47l-.19,2c-.26,2.67-.38,5.42-.38,8.26q0,6.88.24,12.41c0,1.15-.3,1.73-.88,1.73s-.72-.41-.87-1.22q-1-6-4.22-8.6t-13.94-2.63q-.15,3.7-.15,11.94,0,10.67.72,13.55a7.33,7.33,0,0,0,3.44,4.58c1.81,1.13,4.89,1.69,9.22,1.69q18.59,0,24-13.55c.43-1.11.89-1.67,1.36-1.67s.76.37.76,1.11a4.11,4.11,0,0,1-.24,1.32q-.29,1-1.38,7.18-.24,1.32-1.82,7.89l-20-.05q-4.29,0-12.63-.38t-14.75-.41q-6.42,0-6.71-.27a.74.74,0,0,1-.28-.56c0-.67.52-1,1.57-1q5.31,0,7-3t1.67-14.5l0-10.36L1507,371q0-2.92-.31-11.09t-.58-9.32a4.62,4.62,0,0,0-1.47-2.3c-.81-.76-2.61-1.52-5.38-2.3-.82-.24-1.24-.6-1.24-1.11s.56-.91,1.67-.91l9.74.55q5.16.25,25.36.26Q1548,344.77,1548.32,344.82Z"/><path class="cls-1" d="M1622.57,365.45q-.61,0-1.29-1.62-3.9-9.1-10.32-14.06a22.07,22.07,0,0,0-13.69-4.95,20.21,20.21,0,0,0-11.56,3.82q-5.6,3.81-9.12,11.78a41.29,41.29,0,0,0-3.54,17,35.15,35.15,0,0,0,7.26,22.2q7.26,9.36,18.15,9.35a15.62,15.62,0,0,0,6.59-1.26,18.45,18.45,0,0,0,5.13-3.64,14.21,14.21,0,0,0,2.91-3.54c.34-.78.5-2.82.5-6.12q0-8.29-2.07-10.93t-6.66-2.62l-1.49.05q-1.38,0-1.38-1,0-1.17,1.53-1.17l2.53.1,10.79-.15,13.23-.3c.73,0,1.1.35,1.1,1.06s-.42,1.1-1.25,1.16a12.34,12.34,0,0,0-4.82,1.37,4.59,4.59,0,0,0-2.29,2.43,17,17,0,0,0-.43,4.6q0,11.84-.52,13t-8.89,5.31a37.4,37.4,0,0,1-16.8,4.15,33.36,33.36,0,0,1-23.93-9.51q-9.93-9.49-9.93-24.07a35.56,35.56,0,0,1,4.7-18.13,32.92,32.92,0,0,1,12.87-12.59,34.3,34.3,0,0,1,16.62-4.48q7.92,0,17.09,4.81a9.62,9.62,0,0,0,3.63,1.36,2.52,2.52,0,0,0,2.29-1.36c.48-.78.91-1.16,1.29-1.16.73,0,1.16,1,1.29,2.93q.3,4.61,1.39,14.06a5.27,5.27,0,0,1,.09.91C1623.57,365.05,1623.24,365.45,1622.57,365.45Z"/><path class="cls-1" d="M1673,376.5q6.63,3,9.22,6.37t3.83,10.24q1.61,9.11,4.46,12.24a10.25,10.25,0,0,0,7.47,3.34c.85.07,1.28.39,1.28,1s-.49.89-1.48.89q-13.36,0-16.21-.93c-1.89-.63-3.3-4.07-4.23-10.35a83.85,83.85,0,0,0-2.69-13.37,12.78,12.78,0,0,0-4.49-6.48c-2-1.49-5.26-2.25-9.62-2.25a32.91,32.91,0,0,0-5.64.56q-.23,3.18-.23,6.61,0,13,.33,16.79t2,5.56c1.13,1.16,3,1.77,5.66,1.84,1.14,0,1.72.33,1.72.88s-.71,1-2.1,1h-23.64c-1.37,0-2-.33-2-1s.54-.88,1.62-.88q3.63,0,5-1.16a7.69,7.69,0,0,0,2.22-3.62q.81-2.44.81-8.87l-.1-10.3,0-15.72a158.28,158.28,0,0,0-.5-15.92q-.49-3.88-1.79-5.22t-6-2.1c-.67-.1-1-.39-1-.86s.67-.81,2-.81l28.27-.66q11.7,0,17,4.75a15.07,15.07,0,0,1,5.27,11.62,15.35,15.35,0,0,1-2.12,7.94,13.72,13.72,0,0,1-5,5.2A56,56,0,0,1,1673,376.5Zm-18.1-1.29a66.36,66.36,0,0,0,13.76-1.36,14.58,14.58,0,0,0,7.8-5.11,14.33,14.33,0,0,0,3.23-9.36,15,15,0,0,0-3.59-10q-3.57-4.25-11.46-4.25a42.15,42.15,0,0,0-9.5,1.22q-.57,13.91-.57,22.15C1654.61,370.42,1654.72,372.65,1654.94,375.21Z"/><path class="cls-1" d="M1731,342.9h2.2q5.34,11.58,14.72,39.59,6,18,8.3,22a8.6,8.6,0,0,0,7.22,4.52c1.06.11,1.58.48,1.58,1.12,0,.47-.27.71-.81.71l-.67-.05q-4.39-.4-11.17-.41-10.41,0-13.37.35c-1,0-1.48-.3-1.48-.91,0-.43.36-.7,1.09-.81q4.06-.39,5.62-1.46a3.77,3.77,0,0,0,1.55-3.34q0-2.17-2.91-10.87l-2.81-8.7q-2.49,0-22.21.3-5,14-5,17.67a5,5,0,0,0,2.46,4.6,10.56,10.56,0,0,0,4.85,1.65c1.17.1,1.76.48,1.76,1.14,0,.26-.19.5-.57.73-5.09-.23-8.17-.35-9.21-.35q-8,0-10.8.2c-1,0-1.52-.3-1.52-.91s.44-.87,1.33-1q5.49-.75,8.41-7.89t9.07-25.64Q1724.35,358.32,1731,342.9Zm-1.91,11a265,265,0,0,0-10.38,27.92q4.92-.25,7.07-.26l13.42.26q-1.77-5.26-5-14Q1730.36,357.52,1729.12,353.92Z"/><path class="cls-1" d="M1789.12,347c-2.49-.13-4.24-.2-5.26-.2q-10.32,0-14.95,4.57t-5.4,8.12c-.16.85-.59,1.27-1.28,1.27a1.18,1.18,0,0,1-.9-.49,147.21,147.21,0,0,1,1.86-16.25l2.91-.05q3.72,0,10,.4,6.74.4,20.63.41,14.22,0,18.53-.36c2.61-.27,6.18-.4,10.74-.4a72.29,72.29,0,0,1,.76,7.58c.19,3,.39,5.11.58,6.33a7.69,7.69,0,0,1,0,.85c0,.82-.33,1.22-1,1.22a1.33,1.33,0,0,1-1-.43,24.71,24.71,0,0,1-1.84-2.86,22.94,22.94,0,0,0-5.16-6.19,13.53,13.53,0,0,0-6-2.71,104.86,104.86,0,0,0-13.33-.81q-.58,7.63-.57,17.45,0,32.46,1.31,38.28t9.38,5.82c1.3,0,2,.29,2,.86s-.62,1-1.86,1H1779.9c-.76,0-1.15-.32-1.15-1s.75-1,2.25-1a8.39,8.39,0,0,0,6.09-2.25,9.4,9.4,0,0,0,2.67-6.1q.36-3.84.36-22.2Q1790.12,362.27,1789.12,347Z"/><path class="cls-1" d="M1836.1,343.71l8.71.2,13.35-.2c1.59,0,2.39.33,2.39,1q0,.75-1.29,1c-3.54.47-5.74,1.82-6.62,4s-1.31,10.45-1.31,24.68q0,7.85.38,17.65t.86,11.74a6.06,6.06,0,0,0,1.82,3.13q1.33,1.21,5,1.72,1.2.15,1.2,1c0,.61-.37.91-1.1.91l-11.87-.1-10.09.15c-1.12,0-1.68-.33-1.68-1s.45-1.06,1.34-1.06c3-.07,4.7-1.11,5.21-3.14s.76-8.47.76-19.37q0-15.78-.26-25.54t-1.56-11.93q-1.29-2.17-4.86-2.73c-.9-.17-1.34-.56-1.34-1.16S1835.43,343.71,1836.1,343.71Z"/><path class="cls-1" d="M1870.39,376.88q0-6.83,3.91-15a34.48,34.48,0,0,1,11.44-13.48,28.71,28.71,0,0,1,17-5.31,27.6,27.6,0,0,1,21.85,10,34.09,34.09,0,0,1,8.61,22.86,36.12,36.12,0,0,1-9.54,24.5q-9.56,10.84-23,10.85a28.06,28.06,0,0,1-21.56-9.51Q1870.39,392.3,1870.39,376.88Zm10.65-1.64a63.76,63.76,0,0,0,2.38,16.93q2.38,8.67,7.49,12.6a17.61,17.61,0,0,0,10.92,3.92q9.39,0,15.05-9.69a43.83,43.83,0,0,0,5.65-22.45,40.5,40.5,0,0,0-5.77-21.69q-5.77-9.33-15.07-9.33a15.37,15.37,0,0,0-11.69,5,30.27,30.27,0,0,0-6.82,11.92A43.53,43.53,0,0,0,1881,375.24Z"/><path class="cls-1" d="M1955,344.56q2.86,4.11,9.93,12.7L1980.16,376l14.71,18q.47-9.15.47-23.76,0-11-.43-14.7a9.8,9.8,0,0,0-10-8.77c-1.27,0-1.92-.29-1.92-.86a.77.77,0,0,1,.41-.73,42,42,0,0,1,6.42-.46c4-.15,7.39-.23,10.13-.23l6.45.05h1c1,0,1.49.3,1.49.89s-.43.84-1.29.94q-4.83.56-6.95,2.65a9.57,9.57,0,0,0-2.53,6q-.41,3.95-.41,26.57l-.47,26.73c0,1.34-.31,2-.94,2a1.57,1.57,0,0,1-.66-.23,51.47,51.47,0,0,1-4.28-5.11q-3.87-4.87-9.52-11.7T1973,382.29q-7.11-9.15-9-11.27-6.92-7.8-8.16-10c-.54-1-1-1.52-1.48-1.52s-.53.66-.53,2l.1,7.84q0,14.91.76,23.81t1.6,10.45a10.34,10.34,0,0,0,2.91,3.11,7.26,7.26,0,0,0,4.42,1.57c2.1,0,3.15.4,3.15,1.21,0,.61-.59.91-1.76.91l-23-.05c-1.08,0-1.62-.29-1.62-.86s.52-1,1.57-1q5.88,0,7.83-2.76t2-11.71l-.39-17.75q0-15.72-.8-18.53a24.52,24.52,0,0,0-3.66-6.83q-2.84-4-6.47-4.52c-1.08-.14-1.62-.44-1.62-.91,0-.65.7-1,2.1-1Z"/><path class="cls-1" d="M2041.85,343.71l8.7.2,13.36-.2c1.59,0,2.39.33,2.39,1q0,.75-1.29,1c-3.54.47-5.74,1.82-6.62,4s-1.31,10.45-1.31,24.68q0,7.85.38,17.65t.86,11.74a6.06,6.06,0,0,0,1.82,3.13q1.34,1.21,5,1.72,1.2.15,1.2,1c0,.61-.37.91-1.11.91l-11.86-.1-10.09.15c-1.12,0-1.68-.33-1.68-1s.45-1.06,1.34-1.06c3-.07,4.69-1.11,5.21-3.14s.76-8.47.76-19.37q0-15.78-.26-25.54t-1.56-11.93q-1.29-2.17-4.87-2.73c-.89-.17-1.33-.56-1.33-1.16S2041.18,343.71,2041.85,343.71Z"/><path class="cls-1" d="M2089.41,344.56q2.87,4.11,9.93,12.7L2114.62,376l14.71,18q.47-9.15.48-23.76,0-11-.43-14.7a9.82,9.82,0,0,0-10-8.77c-1.27,0-1.91-.29-1.91-.86a.76.76,0,0,1,.4-.73,42,42,0,0,1,6.43-.46q6-.23,10.12-.23l6.45.05h1c1,0,1.49.3,1.49.89s-.43.84-1.29.94c-3.22.37-5.53,1.25-6.95,2.65a9.57,9.57,0,0,0-2.53,6q-.41,3.95-.41,26.57l-.47,26.73c0,1.34-.31,2-.94,2a1.57,1.57,0,0,1-.66-.23,53.18,53.18,0,0,1-4.28-5.11q-3.87-4.87-9.52-11.7t-8.91-11.08q-7.11-9.15-9-11.27-6.91-7.8-8.16-10c-.54-1-1-1.52-1.48-1.52s-.53.66-.53,2l.1,7.84q0,14.91.76,23.81t1.6,10.45a10.34,10.34,0,0,0,2.91,3.11,7.26,7.26,0,0,0,4.42,1.57c2.1,0,3.15.4,3.15,1.21,0,.61-.59.91-1.76.91l-23-.05c-1.08,0-1.62-.29-1.62-.86s.52-1,1.57-1q5.88,0,7.83-2.76t2-11.71l-.39-17.75q0-15.72-.8-18.53a24.52,24.52,0,0,0-3.66-6.83q-2.84-4-6.47-4.52c-1.08-.14-1.62-.44-1.62-.91,0-.65.7-1,2.1-1Z"/><path class="cls-1" d="M2198.41,348.41a15.21,15.21,0,0,0,3-3.34c.32-.81.78-1.21,1.39-1.21s1,.6,1.05,1.82l1,17.65a7.73,7.73,0,0,1-.12,1.84q-.12.33-.69.33c-.51,0-1-.72-1.62-2.17a34.62,34.62,0,0,0-8.79-13.2,18.09,18.09,0,0,0-12.32-5.11,16.51,16.51,0,0,0-10.69,4,25.44,25.44,0,0,0-7.57,11.33,45.48,45.48,0,0,0-2.7,15.8q0,14.37,7.47,23.34t16.7,9a18,18,0,0,0,11.51-4.2,28,28,0,0,0,7.92-9.71c.48-1,1-1.52,1.49-1.52.69,0,1.05.41,1.05,1.22,0,1-1.22,3.11-3.63,6.42a27.32,27.32,0,0,1-9.53,8,26.92,26.92,0,0,1-12.68,3.09,29.18,29.18,0,0,1-15.17-4.3,31.16,31.16,0,0,1-11.39-11.89,36.15,36.15,0,0,1-4.2-17.8,39.3,39.3,0,0,1,4.09-18.05,30.07,30.07,0,0,1,11.49-12.49,29.31,29.31,0,0,1,15.29-4.46,28.38,28.38,0,0,1,8.61,1.4A40,40,0,0,1,2198.41,348.41Z"/><path class="cls-1" d="M2217.42,401.1a4.56,4.56,0,0,1,3.32,1.42,4.82,4.82,0,0,1,1.41,3.54,5,5,0,0,1-1.38,3.54,4.44,4.44,0,0,1-3.35,1.47,4.37,4.37,0,0,1-3.29-1.47,5,5,0,0,1-1.39-3.54,4.89,4.89,0,0,1,1.39-3.49A4.37,4.37,0,0,1,2217.42,401.1Z"/><path class="cls-1" d="M611.76,185h53.92v-39.4h14.26V127.71H665.68V87.84H576.54v18.1H605.7c-.35,5.45-.9,10.9-1.43,16.19q-.28,2.82-.56,5.58H564.22v17.85h37c-1.14,7.55-2.45,14.7-3.92,21.3h-22V185h17.21c-7.47,24.07-17.89,42.14-31.82,55.2l-1,1,1.14.86c3.67,2.75,9.63,9.85,11.29,12.69l.76,1.31,1.1-1.05a107.77,107.77,0,0,0,15.37-18.75V299h18.82V286h61.14V207.22H604.2A177.07,177.07,0,0,0,611.76,185Zm37.76,40.59v42.08H608.17V225.55Zm-2.9-80v21.3H616.2c1.46-6.68,2.77-13.83,3.89-21.3Zm0-39.62v21.77h-24c.87-7.17,1.55-14.85,2.16-21.77Z"/><path class="cls-1" d="M740.35,190.75h37.46V171.69H740.35V141.46h41.56V122.64H757.68c6.06-10.61,13.05-26.14,19.23-39.87l1.14-2.52-19.9-5-.32,1.11a248.41,248.41,0,0,1-17.31,41.81l-.72,1.34,11.86,3.11H707.79l10.51-3.84-.2-1c-2.19-10.94-9.41-27.21-17.58-39.57l-.5-.77-16.54,5.6.76,1.27c7.35,12.32,13.69,27.51,16,38.31H680.93v18.82h39.64v30.23H684.31v19.06h36.26V223.4H675.38v19.31h45.19v56.54h19.78V242.71h47.12V223.4H740.35Z"/><path class="cls-1" d="M856.68,187l-1.79.68,1.4,1.31c3.9,3.66,8.19,9.7,10.67,13.77l.56.91,1-.46c20.14-9.5,50.88-27.69,68.17-42.7l1.15-1-14.33-10.12-.71.62C907.59,163.22,877.24,179.19,856.68,187Z"/><path class="cls-1" d="M991.61,150.5l-.86-.31L980.68,165l1.43.53c24.28,8.9,56.26,23.3,72.79,32.78l1,.57,10.49-16.56-1.15-.6C1048.05,172.65,1015.71,158.93,991.61,150.5Z"/><path class="cls-1" d="M1066.11,122.88h-61.76c7.2-9.07,15.83-22,26.31-39.51l.79-1.31-20.34-6.32-.44,1a245.1,245.1,0,0,1-25,41.82l-1,1.27,8.18,3.09h-66l9.37-4.78-.45-1c-4.7-10.81-15.31-27.41-25.78-40.38l-.58-.72-17.47,7.77,1,1.21c9,11.24,18.52,26.86,23.3,37.93H854.71v18.58h211.4Z"/><path class="cls-1" d="M1041.22,198H881.53v74.91H850.35v18.58H1071V272.94h-29.73Zm-19.3,18.1v56.81h-28.3V216.13Zm-47.12,0v56.81H946.74V216.13Zm-46.88,0v56.81H900.1V216.13Z"/><path class="cls-1" d="M1320.34,231.81c9.85-23.1,16.57-51.34,21.72-91.32h16.58V121.91H1300c3.06-13.38,5.56-27,7.42-40.44l.16-1.16L1290,77.51l-.17,1.21c-6.55,46.76-16.9,81.64-30.75,103.68l-.63,1,1,.65c2.69,1.79,6.79,5.68,9.79,8.52.94.89,1.76,1.67,2.4,2.24l1.05,1,.76-1.21a148.75,148.75,0,0,0,11.39-23c4.57,23.59,10.06,43.1,16.75,59.52-10.66,23.1-25.31,40.56-44.79,53.4l-1.27.83,1.12,1c3.16,2.94,8.2,9.81,9.62,13.12l.58,1.36,1.2-.85c17.6-12.4,31.69-28.2,43-48.22,10,19,22.51,33.88,37.31,44.12l1.08.75.64-1.15c2.41-4.35,7.19-9.52,10.61-12.48l1.21-1.06-1.35-.86C1344.94,271.24,1331.8,255.11,1320.34,231.81Zm3.14-91.32c-3,27.53-7.08,48.82-12.68,66.5-6.27-19.4-11.24-41.75-14.81-66.5Z"/><path class="cls-1" d="M1227.05,267.32c10.6-8.71,16.83-18.45,19.49-30.46l13.24-.74.29-15-12.11.73V211.32h-17.13v11.43l-1.18.06c-11.16.65-21.75,1.26-32.12,1.71a171.28,171.28,0,0,0,8.66-15.64h51.44V167.1h-46.89v-7.52h41.09v-26.1h16.43V117.32h-16.43V92.67h-41.09V75.76h-16.63V92.67H1155.2v24.65H1139v16.16h16.19v26.1h38.91v7.52h-45.68v41.78H1187c-1.59,2.88-3.27,5.78-5,8.69-1.54,2.65-3.09,5.32-4.6,8-6.22.21-12.22.46-17.89.69-7.44.31-14.47.6-20.57.74l-1.33,0,2,15.71,27.13-1.39c-3.14,4.31-6.42,8.39-9.36,12.05l-2.6,3.25,1.74.48a298,298,0,0,1,34.51,12.15c-14.15,6-32.77,10.92-55.41,14.77l-2.06.35,1.35,1.6a50.65,50.65,0,0,1,7.29,11.75l.36.9,1-.17c27.92-5.1,50.62-12,67.48-20.63a271.73,271.73,0,0,1,29.06,15.39l.75.47,13.7-12-1.34-.85A218.91,218.91,0,0,0,1227.05,267.32Zm12.24-85.51v12.6h-28.55v-12.6Zm-28.55-63.76V107.63h22.75v10.42Zm0,26.58V132.52h22.75v12.11Zm-29.46,104.46.15-.22c2-2.82,4.12-5.74,6.09-8.85L1228.1,238c-3.32,8.46-9.45,15.53-18.67,21.54C1199.85,255.55,1190.17,252,1181.28,249.09Zm12.83-67.28v12.6h-27.83v-12.6Zm-21.06-37.18V132.52h21.06v12.11Zm0-26.58V107.63h21.06v10.42Z"/><path class="cls-1" d="M1621.48,154.48l.2-1.16-21-3.82-.16,1.25c-4.68,36.69-14.4,87.42-22.69,118.57h-84.61V289.1h152.7V269.32H1597C1605.16,238.74,1615,192.87,1621.48,154.48Z"/><path class="cls-1" d="M1537.34,151.41l-18.51,4.14.26,1.17c7.4,33.18,14.46,77.36,16.41,102.77l.11,1.46,20-5.76-.11-1c-2.51-23.29-9.64-66.82-17.9-101.65Z"/><path class="cls-1" d="M1503.22,82.21,1484,76.45l-.39,1.06c-13.17,36.41-35.28,72.11-59.15,95.49l-.78.77.69.84c3.24,3.93,8.26,13,10,17.32l.69,1.76,1.3-1.38A251.77,251.77,0,0,0,1458.17,166V298.53h20.27v-164a340.25,340.25,0,0,0,24.34-51.13Z"/><path class="cls-1" d="M1636,119.5h-72.73l19.77-6-.24-1.08c-2.2-10-7.93-26-12.12-37.6l-.36-1-19.27,5,.47,1.25c4.68,12.29,9.43,28.37,11.3,38.22l.24,1.24h-59.7v19.78H1636Z"/><path class="cls-1" d="M1855.57,202.88l.83,1L1870,190.34l-.72-.84c-9.67-11.23-29.34-25.66-43.53-34.31l-.79-.48L1812,167l1.28.82C1827.38,176.78,1846.4,191.67,1855.57,202.88Z"/><polygon class="cls-1" points="1904.32 215.72 1904.32 75.76 1884.3 75.76 1884.3 218.99 1802.43 232.06 1805.73 251.59 1884.3 238.57 1884.3 298.53 1904.32 298.53 1904.32 235.28 1935.43 230.18 1932.4 211.4 1904.32 215.72"/><path class="cls-1" d="M1860.85,139l.79,1.09,14.11-13.28-.68-.86c-7.59-9.66-23.91-23.38-39.68-33.37l-.78-.49-13.13,12,1.23.86C1835.58,113.94,1853,128.41,1860.85,139Z"/><path class="cls-1" d="M1805.73,206.71c-1-1.3-24.52-31.51-33.11-41.28v-2.71h35.53v-19.3h-35.53V105.21a213.14,213.14,0,0,0,30.92-9.51l1.45-.59L1792.6,78.86l-.86.38c-15.56,6.85-44.18,14-76.56,19.25l-1.61.26.73,1.45a82.61,82.61,0,0,1,5.23,13.77l.26,1,1.06-.14c9.89-1.35,20.56-3.13,31.75-5.29v33.84H1712v19.3h37.7c-9.44,27.15-26.07,57.32-40.78,73.89l-.63.71.55.78c3.1,4.39,7.23,11.45,8.78,15.89l.7,2,1.35-1.61c10.86-12.94,22.46-33.35,32.93-57.88v102h20V189.41c6.59,10,16.2,24.78,20.22,32.59l.86,1.67,12.6-16.23Z"/><path class="cls-1" d="M2159.25,251.36c22.46-21.05,38.73-47.65,48.37-79.09l.32-1-13.2-5.65-3,.79h-37.23V132.76h57.76V113.7h-57.76V75.76h-20V113.7h-56.55v19.06h56.55v33.62h-51.71v19.06h7.52c9.29,25.31,22.33,47.19,38.75,65.08-18.57,13.31-40.1,23.3-64,29.71l-1.86.5,1.27,1.44a67.44,67.44,0,0,1,9.46,15.85l.41,1,1.05-.33c26.15-8.21,49.09-19.69,68.22-34.16,17.66,15.31,39.26,27,64.22,34.64l.93.29.47-.85c2.52-4.59,7.47-11.52,11.37-15.17l1.56-1.47-2.07-.56C2196.69,275.12,2176.23,265,2159.25,251.36Zm-14.82-13.19a164.23,164.23,0,0,1-33.81-52.73h70.89A145.76,145.76,0,0,1,2144.43,238.17Z"/><path class="cls-1" d="M2079.24,199.84,2076.75,181l-1.34.4c-9,2.68-17.51,5.13-25.29,7.3V143.63H2077v-19.3h-26.83V76h-20v48.33h-30.93v19.3h30.93v50.59c-11.37,3.2-22.81,6.11-33.14,8.43l-1.24.28,5.76,20,28.62-8.34v61.47c0,2.55-.53,3.4-3.73,3.4-2.85.23-13.26.24-24.77,0l-2-.05.89,1.77c2.29,4.59,5,11.58,5.68,16.09l.16,1,1,0q3.47,0,6.61,0c12.54,0,21.11-.71,26.53-3.3,6.84-3.16,9.63-8.66,9.63-19v-67.5c6-1.85,12.24-3.7,18.46-5.55Z"/><line class="cls-2" x1="379.62" y1="433.65" x2="2222.57" y2="433.65"/><path class="cls-3" d="M459.23,180.14c-15.45-22.82-36.73-34.39-63.22-34.39-26.16,0-47.06,11.59-62.17,34.45-14.87,22.86-22.42,55.85-22.42,98.06,0,40.68,7.4,73.18,22,96.61,14.83,23.81,36,35.88,62.95,35.88,16.93,0,31.94-4.93,44.58-14.61,13.07-9.61,23.29-24.64,30.37-44.64s10.76-44.42,10.76-73C482.08,235.64,474.39,202.55,459.23,180.14ZM457,278.72c0,69.85-19.72,103.81-60.29,103.81s-60.49-33.06-60.49-101.07c0-72.45,19.54-107.67,59.75-107.67C437.08,173.79,457,208.11,457,278.72Z"/><path class="cls-4" d="M171.38,152.05a1.91,1.91,0,0,0-1.56-1.23l-35-2.74a1.77,1.77,0,0,0-1.41.61,2.59,2.59,0,0,0-.59,1.69v4.11a2.26,2.26,0,0,0,1.44,2.25c13.65,3.94,26.71,20.4,38.82,48.93l83.42,194.67a1.89,1.89,0,0,0,1.67,1.23h3a1.89,1.89,0,0,0,1.69-1.3l6.53-16.46a2.8,2.8,0,0,0,0-2.09Z"/><path class="cls-4" d="M376.05,148.66a1.65,1.65,0,0,0-1.45-.58c-14.35,1.84-23.36,2.74-27.56,2.74a214.94,214.94,0,0,1-22.37-1.6c-6.17-.66-9.57-1-10.24-1.12a2.1,2.1,0,0,0-2.24,2.18,4.9,4.9,0,0,0,0,.86v3.35a2.33,2.33,0,0,0,1.31,2.21c8.9,3.49,13.22,10.54,13.22,21.58,0,7.39-3,18.83-8.93,34L276,320,231.38,216.32c-9-21.23-13.55-36.48-13.55-45.34,0-7.54,3-12.07,9.42-14.26a2.3,2.3,0,0,0,1.38-2.23v-4.11a2.55,2.55,0,0,0-.62-1.71,1.72,1.72,0,0,0-1.44-.59,360.16,360.16,0,0,1-40.24,2.74,1.86,1.86,0,0,0-1.61,1.11,2.78,2.78,0,0,0-.06,2.26l89.77,211.59A1.88,1.88,0,0,0,276.1,367h0a1.92,1.92,0,0,0,1.67-1.31L336.28,216.1c8.19-21.34,14.92-35.79,20-42.94a53.69,53.69,0,0,1,19.24-16.53,2.39,2.39,0,0,0,1.15-2.14v-4.11A2.56,2.56,0,0,0,376.05,148.66Z"/><path class="cls-3" d="M473.75,379.83q19.53-35,19.53-105.41,0-62.15-19.35-96.89,36.92,29.07,36.92,99.5Q510.85,346.51,473.75,379.83Z"/><path class="cls-3" d="M270.36,11C140.49,11,35.21,112.46,35.21,237.61c0,79.83,42.86,150,107.58,190.33-52.15-41.52-83.8-104-81.4-174.19C65.6,131.18,172.06,31.84,303.67,36.36,356.82,38.18,405.33,56.08,444,84.83,401,39.47,339.14,11,270.36,11Z"/><path class="cls-4" d="M307,446.18c-112.6,0-203.88-94.24-203.88-210.48a213.75,213.75,0,0,1,46-133.12A203.51,203.51,0,0,0,79.49,256.19c0,112.25,90.12,203.24,201.29,203.24a198.91,198.91,0,0,0,103.76-29.06A197.67,197.67,0,0,1,307,446.18Z"/><polygon class="cls-3" points="386.89 77.63 392.45 70.02 432.4 75.91 421.81 33.81 444.52 85.63 386.89 77.63"/><polygon class="cls-4" points="326.57 423.72 330 432.5 370.13 437.01 349.14 475 384.33 430.7 326.57 423.72"/></svg>