<svg id="图层_1" data-name="图层 1" xmlns="http://www.w3.org/2000/svg" viewBox="0 0 280 150"><defs><style>.cls-1{fill:#192d79;}.cls-2{fill:#1b94d3;}</style></defs><title>盛雲LOGO</title><path class="cls-1" d="M180.82,38a15,15,0,0,0-5-1.52,19.09,19.09,0,0,0-5.27.11,29.39,29.39,0,0,0-5.09,1.3,56.37,56.37,0,0,0-9.34,4.45c-3,1.72-5.81,3.58-8.61,5.47l-3.85,2.64q.85.43,1.71.9c1,.53,2,1.1,3,1.69l1.9-1.5c2.62-2.07,5.23-4.1,7.92-6,1.34-1,2.7-1.86,4.1-2.71a46,46,0,0,1,4.26-2.35A22.45,22.45,0,0,1,175.74,38a14.94,14.94,0,0,1,4.76.75,17.74,17.74,0,0,1,4.42,2.26,16.61,16.61,0,0,0-4.1-3M137.94,54.44c-.94.64-1.88,1.27-2.82,1.9-1.38.92-2.75,1.81-4.15,2.67a79.44,79.44,0,0,1-8.48,4.61q-1.08.49-2.17.92c-.72.29-1.47.55-2.15.78l-.26.09-.3.09-.6.18c-.31.1-.68.18-1,.27l-1.06.22-1.08.16a26.77,26.77,0,0,1-8.87-.44,21.92,21.92,0,0,1-7.93-3.42,16,16,0,0,1-5.24-6.34,19.23,19.23,0,0,1-1.26-4,25.41,25.41,0,0,1-.37-4.31c0-.09,0-.17,0-.27v-.31l0-.63,0-.63v-.5c.1-.73.13-1.49.29-2.2a19.15,19.15,0,0,1,1.2-4.17,16.58,16.58,0,0,1,5.15-6.75,24.22,24.22,0,0,1,8.06-4,34.17,34.17,0,0,1,4.58-1c.78-.11,1.56-.22,2.35-.29l1.17-.09,1.11,0h1.67l.44-1.45.29-.95.14-.47c.05-.16.12-.31.17-.46l.35-.93.41-.9.21-.45.24-.43c.16-.29.31-.58.49-.87.36-.55.71-1.12,1.13-1.65s.84-1,1.28-1.55.93-1,1.45-1.42c.25-.23.5-.46.77-.67s.52-.44.8-.64l.83-.61.86-.58c.28-.2.59-.36.89-.55s.6-.36.91-.52c.61-.34,1.24-.65,1.88-1l1-.44,1-.4c.66-.26,1.33-.5,2-.73q2-.67,4.14-1.16c.7-.16,1.41-.3,2.12-.42s1.43-.24,2.15-.31a31.76,31.76,0,0,0-4.37,0c-.73.05-1.46.12-2.19.21s-1.46.21-2.18.35-1.45.3-2.17.47l-1.08.28L128.7,9c-.71.23-1.42.47-2.11.76-.35.13-.7.28-1,.44s-.69.3-1,.48l-1,.52-1,.57c-.33.19-.64.41-1,.61s-.64.42-.94.66c-.63.44-1.22.95-1.81,1.44a22.52,22.52,0,0,0-1.66,1.64c-.54.56-1,1.19-1.5,1.8-.24.31-.45.65-.67,1l-.33.49-.3.51-.59,1L113.23,22c-.08.18-.17.35-.25.53l0,.12h-1.23c-.89,0-1.78,0-2.66.12a38.89,38.89,0,0,0-5.3.81,28.53,28.53,0,0,0-10.1,4.34,22.15,22.15,0,0,0-7.32,8.75,13.93,13.93,0,0,0-.56,1.33,13.57,13.57,0,0,0-.49,1.35l-.41,1.37c-.12.46-.21.92-.31,1.38-.23.92-.31,1.84-.45,2.77l0,.17v0a.65.65,0,0,0,0,.14v.08l0,.31,0,.63,0,.63,0,.31c0,.11,0,.24,0,.36a28.11,28.11,0,0,0,0,2.88,27.77,27.77,0,0,0,.31,2.82,25.6,25.6,0,0,0,1.62,5.57,22.28,22.28,0,0,0,7.33,9.06,27.49,27.49,0,0,0,10.41,4.49,31.51,31.51,0,0,0,11.13.39l1.4-.24c.47-.1.93-.2,1.4-.32s.92-.24,1.41-.4l.6-.2.3-.1.33-.12c.91-.32,1.73-.65,2.55-1s1.63-.73,2.43-1.12a73.87,73.87,0,0,0,9-5.33c2.85-1.93,5.56-4,8.23-6.05l.28-.22c-1-.69-1.94-1.35-2.87-2q-.92-.62-1.83-1.18"/><path class="cls-2" d="M149.12,40.14l.33-.25c.22-.17.54-.41,1-.72s1-.68,1.61-1.11,1.38-.91,2.23-1.43a65.12,65.12,0,0,1,6.32-3.41A50.06,50.06,0,0,1,169.41,30a34.31,34.31,0,0,1,5.41-.94,24.49,24.49,0,0,1,2.95-.1,23.12,23.12,0,0,1,3.08.28,18.34,18.34,0,0,1,6.22,2.16l.74.45.72.49c.24.16.46.35.7.53l.09.07,0,0,.07.06.15.13.3.25.15.13.17.16.34.32.17.16.15.16.31.32c.41.43.79.88,1.16,1.36a16.65,16.65,0,0,1,1.9,3.1,17.63,17.63,0,0,1,1.21,3.5,18.16,18.16,0,0,1,.47,3.7,20.14,20.14,0,0,1-.27,3.72,21.49,21.49,0,0,1-.91,3.61A22.43,22.43,0,0,1,193.23,57,24.57,24.57,0,0,1,188.75,63a23.53,23.53,0,0,1-6.12,4.28,22.13,22.13,0,0,1-7.14,2.07,22.94,22.94,0,0,1-3.67.13c-.3,0-.61,0-.91-.06s-.6-.05-.9-.1l-.45-.06-.22,0h-.14l-.1,0-.4-.07-.2,0-.21,0-.89-.18-.85-.2c-.56-.14-1.11-.29-1.66-.46-1.09-.33-2.15-.72-3.18-1.14s-2-.88-3-1.36c-.48-.24-1-.48-1.43-.74s-.93-.51-1.38-.77c-.91-.52-1.79-1.06-2.64-1.6s-1.69-1.09-2.5-1.64c-1.62-1.1-3.16-2.19-4.64-3.24s-2.9-2-4.29-3A41.84,41.84,0,0,0,134,50.4,18.18,18.18,0,0,0,127.35,49a16.23,16.23,0,0,0-2.56.21c-.37.05-.71.13-1,.2l-.85.21-.67.2-.48.16-.39.13.36-.2.45-.24.63-.31.82-.35c.31-.11.64-.25,1-.36a14.74,14.74,0,0,1,2.62-.61,18.42,18.42,0,0,1,7.31.54c.69.18,1.39.4,2.1.65s1.43.53,2.16.85,1.46.66,2.2,1,1.49.76,2.24,1.17c1.51.82,3,1.72,4.61,2.66s3.16,1.91,4.82,2.88A64.4,64.4,0,0,0,163.26,63c.94.34,1.89.63,2.86.89.48.13,1,.24,1.46.35l.74.15.71.12.19,0,.2,0,.4.06.1,0H170l.18,0,.36,0c.24,0,.49,0,.73.05s.49,0,.73,0a18.09,18.09,0,0,0,8.54-1.88,18.87,18.87,0,0,0,4.86-3.44A19.48,19.48,0,0,0,191,49.2a16.34,16.34,0,0,0,.27-2.86,13.68,13.68,0,0,0-.26-2.8,13.14,13.14,0,0,0-2.14-5c-.26-.37-.54-.73-.84-1.07l-.23-.26-.11-.13L187.6,37l-.22-.23-.11-.11-.14-.13-.28-.26-.14-.13s-.06-.05,0,0l0,0-.07-.05-.51-.43-.53-.4L185,34.8a15,15,0,0,0-4.85-2,22,22,0,0,0-5.18-.52c-.86,0-1.71.06-2.55.13s-1.66.19-2.46.32c-1.61.25-3.15.61-4.61,1q-1.09.29-2.12.6l-2,.64c-2.57.86-4.77,1.76-6.57,2.54s-3.2,1.44-4.14,1.92l-1.08.54-.37.19"/><path class="cls-1" d="M176.66,24.93l.18.35c.06.12.1.24.16.36l.32.71.06.15c.4,0,.8,0,1.21,0a23.47,23.47,0,0,1,2.42.19c-.12-.5-.25-1-.39-1.5l-.3-.88c-.05-.15-.1-.3-.16-.44l-.18-.43-.37-.87-.43-.86-.22-.43c-.08-.14-.16-.28-.24-.42l-.5-.84c-.17-.28-.37-.54-.55-.81l-.28-.4-.14-.2-.15-.19-.62-.77c-.1-.13-.2-.26-.31-.39l-.33-.37-.68-.73c-.23-.24-.48-.46-.71-.7s-.48-.46-.73-.69l-.77-.64-.38-.32-.19-.16-.21-.15-.83-.61c-.57-.43-1.08-.74-1.61-1.09l-.4-.26-.1-.06-.05,0-.08,0h0l-.22-.12-.88-.49A28.63,28.63,0,0,0,160.44,8L160,7.86l-.49-.08-1-.16c-.32-.06-.65-.09-1-.12l-1-.1c-.32,0-.64,0-1-.06l-1,0c-.32,0-.63,0-.94,0h-.93a37.13,37.13,0,0,0-7,.9,43.79,43.79,0,0,0-6,1.81A47.15,47.15,0,0,0,135,12.14c-1.38.72-2.55,1.41-3.49,2s-1.65,1.11-2.13,1.46-.72.56-.72.56l.84-.35c.55-.22,1.35-.54,2.38-.92s2.28-.81,3.73-1.26,3.09-.9,4.89-1.31a54.6,54.6,0,0,1,5.82-1,41.83,41.83,0,0,1,6.48-.29l1.68.11.84.09c.28,0,.57,0,.85.1a32.7,32.7,0,0,1,3.36.66,27.62,27.62,0,0,1,6.44,2.52l.76.42.19.1h0l.1.06.4.25c.52.34,1.09.67,1.51,1l.69.49.17.12.17.14.34.27.68.54.64.57c.21.19.43.37.63.57l.59.6.3.3.28.31.55.63.14.16.13.16.25.33c.16.22.34.43.5.65l.46.67.23.34.2.35.41.69.36.71"/><path class="cls-1" d="M94.6,55.84a5.08,5.08,0,0,0,3,1.07,2.52,2.52,0,0,0,2.75-2.53c0-1.47-.43-2.46-3.94-4.7-2.25-1.43-5.33-3.12-5.33-7.5s3.34-6.83,7.28-6.83a39.23,39.23,0,0,1,6,.7,43,43,0,0,0-.56,5.73,2.26,2.26,0,0,1-1.62,0c-.36-2.21-.89-3.2-1.56-3.82a3.33,3.33,0,0,0-2.45-.85A2.72,2.72,0,0,0,95.5,40c0,1.54.76,2.39,2.15,3.31l3.87,2.42c2.48,1.62,3.57,3.16,3.57,6,0,3.82-2.85,7.2-8.24,7.2a12,12,0,0,1-5.49-1.29,24.46,24.46,0,0,1-1.29-6.28,2.47,2.47,0,0,1,1.62-.59,11.4,11.4,0,0,0,2.91,5.07"/><path class="cls-1" d="M106.92,35.89c1.19,0,2.88.11,4.67.11,2.25,0,4.86-.07,5.49-.11a2.93,2.93,0,0,1,0,1.76,7.1,7.1,0,0,0-.93.22c-.56.15-.36.66-.17,1.18.5,1.32,2.61,6.06,3.14,7,.07.07.2,0,.27,0a48.83,48.83,0,0,0,3.14-7c0-.51.07-.88-.73-1.07-.6-.15-1.19-.26-1.92-.37a4.19,4.19,0,0,1,.17-1.76c1.26,0,2.32.11,4.47.11s3-.11,4.24-.11a3.2,3.2,0,0,1,0,1.76c-.73.18-1.46.26-1.79.4-1,.4-1.39.7-2.42,2.42-1.29,2.24-3.24,6.14-4,7.75a3.4,3.4,0,0,0-.4,1.8c0,1.76,0,2.13,0,4,0,1.1.1,2,1.09,2.2.56.15,1.29.26,2.08.44a3.43,3.43,0,0,1-.17,1.73c-1,0-3.91-.15-5.89-.15-2.65,0-3.51.15-5.36.15a3.07,3.07,0,0,1,0-1.73,18.69,18.69,0,0,0,2.28-.44c.83-.26,1-1,1-2,.07-1.73,0-2.24,0-3.86a6.12,6.12,0,0,0-.5-1.95c-.6-1.51-2.51-5.44-3.71-7.83-.93-1.87-1.52-2.39-2.32-2.65a9.59,9.59,0,0,0-2-.37,3.31,3.31,0,0,1,.1-1.73"/><path class="cls-1" d="M146.51,58.38c-1.39,0-3.44-.11-6-.11-2.88,0-5,.11-6.12.11-.26-.26.16-1.54.39-1.76a12.63,12.63,0,0,0,1.86-.4c1-.26,1.22-.66,1.32-2.06.17-3.86.13-9.44.13-15.32,0-.07-.1-.33-.2-.33a25.69,25.69,0,0,0-2.95,0c-.53,0-1,.22-1.56,1.43A29.06,29.06,0,0,0,132.28,43c-.17.18-1.62-.15-1.75-.51.27-1.54.66-4.7.79-6.69,0-.07.3-.33.4-.29a9.56,9.56,0,0,0,3.18.48h11.58a14.5,14.5,0,0,0,4.17-.4c.13,0,.23.29.23.37a47.07,47.07,0,0,0-.86,6.8,2.91,2.91,0,0,1-1.75.11,19.37,19.37,0,0,0-.63-3.34c-.23-.84-.6-1.07-1.16-1.14a23.67,23.67,0,0,0-3.21,0,.43.43,0,0,0-.17.33c0,5.33-.1,13.74,0,15.76,0,.37,0,1.25.76,1.62a16.2,16.2,0,0,0,2.71.55,2.72,2.72,0,0,1-.1,1.76"/><path class="cls-1" d="M35.36,89.2a4.52,4.52,0,0,1,1.19,2l0,.07A2,2,0,0,0,38,92.42,2.35,2.35,0,0,0,40,91.7a2.42,2.42,0,0,0,.25-2.1,3.7,3.7,0,0,0-3.43-2.18,4.13,4.13,0,0,0-2.34.33.25.25,0,0,0-.1.15c0,.19,0,.39,1,1.29"/><path class="cls-1" d="M46.79,120.44a7.46,7.46,0,0,0-2.86-2.77.25.25,0,0,0-.19,0c-.45.17-.94.75-1.55,1.81-.29.44-.48.69-.59.83a4.37,4.37,0,0,1,0-.48v-5.72a2.18,2.18,0,0,1,.45-1.28.92.92,0,0,0,.36-.8c0-.37-.37-.71-1-1L40,110.06a1.91,1.91,0,0,0-2.32.29l0,0c-.45.69-.9.62-1.21.51H22.32a2.29,2.29,0,0,1-1-.11,22.79,22.79,0,0,0-2.64-1.19,1.12,1.12,0,0,0-1.05,0,1.18,1.18,0,0,0-.39,1v9.25c0,.43-.19.61-.62.61l-2.36-.18a1.19,1.19,0,0,0-1,.28.86.86,0,0,0-.17.76c.07.37.34.77,1.17.77a3.09,3.09,0,0,0,.47,0l1.14-.17H45.51c1,0,1.26-.07,1.38-.14l.07-.06a.94.94,0,0,0-.17-1.29M37.29,113v6.9c0,.43-.19.61-.64.61h-1c-.43,0-.61-.19-.61-.64V113c0-.43.19-.61.64-.61h1c.43,0,.61.19.61.64m-6.58,0v6.9c0,.43-.19.61-.64.61H28.93c-.43,0-.61-.19-.61-.64V113c0-.43.19-.61.64-.61h1.14c.43,0,.61.19.61.64M24,113v6.9c0,.43-.19.61-.64.61H22.21c-.43,0-.61-.19-.61-.64v-6.75a3.24,3.24,0,0,1,.06-.72,16.21,16.21,0,0,1,1.72,0c.45,0,.62.18.62.64"/><path class="cls-1" d="M17.95,106.47a22.8,22.8,0,0,0,.94-5.41,1,1,0,0,1,.93-1h3.82c.43,0,.61.17.61.61a10.65,10.65,0,0,1-.14,1.7,3.36,3.36,0,0,1-1,2.58,2.49,2.49,0,0,1-2.08.3,1.45,1.45,0,0,0-1.26,0,.8.8,0,0,0-.32.66.25.25,0,0,0,.07.19,4.86,4.86,0,0,0,1.23.73,2.81,2.81,0,0,1,1.2,1.87.72.72,0,0,0,.27.49,1.71,1.71,0,0,0,1.25.19,5.11,5.11,0,0,0,3.41-2.13,12.58,12.58,0,0,0,1.53-5.55,3.1,3.1,0,0,1,.31-1.22.92.92,0,0,0,.51-.78.25.25,0,0,0,0-.09A4.64,4.64,0,0,0,27,97.73,2,2,0,0,0,24.6,98a1.79,1.79,0,0,1-1.36.6h-3.5c-.63,0-.71-.28-.71-.57l0-2.42c0-.74.39-.84.68-.84h9.47a.71.71,0,0,1,.79.64,21.18,21.18,0,0,0,2.72,7.82,1.2,1.2,0,0,1-.24,1.74,24.47,24.47,0,0,1-6,4c-1.1.51-1.21.69-1.25.86a.25.25,0,0,0,0,.2c.12.17.39.24,1.42.13a21.23,21.23,0,0,0,7.75-3c.88-.58,1.35-.29,1.63,0a15.15,15.15,0,0,0,6.27,3.48,3.42,3.42,0,0,0,3-.39l.06-.05c.8-1,.62-2.14-.53-3.3a2.54,2.54,0,0,1-.28-1.91,9.45,9.45,0,0,1,.18-1.4,10,10,0,0,0,.15-1.69.25.25,0,0,0-.1-.2.8.8,0,0,0-.76-.18.94.94,0,0,0-.51.76,26.12,26.12,0,0,1-1.15,2.59c-.56.57-1.06.78-1.47.64a13.16,13.16,0,0,1-1.53-.9,1.38,1.38,0,0,1-.62-.83.65.65,0,0,1,.19-.49c.91-1.08,1.73-2.13,2.44-3.13s1-1.09,1.16-1.12c.42-.15.64-.3.72-.5a.25.25,0,0,0,0-.1c0-.62-.69-1.16-2.08-1.68a12.14,12.14,0,0,0-1.47-.55,1.44,1.44,0,0,0-1.87.94,18.51,18.51,0,0,1-1.44,3.17c-.33.53-.51.56-.55.56h0c-.05,0-.13-.08-.2-.19a16.5,16.5,0,0,1-1.69-5,1,1,0,0,1,.06-.73s.1-.11.34-.11H44c1.06,0,1.36-.13,1.49-.33l0-.07c.06-.22,0-.56-.73-1.52a10,10,0,0,0-2.19-1.92,1.9,1.9,0,0,0-2.33.45,7.79,7.79,0,0,0-1.05,1.45,1,1,0,0,1-1.22.48H34.26c-.29,0-.6-.08-.65-.71A9.11,9.11,0,0,1,33.54,91,1.46,1.46,0,0,1,34,89.84c.4-.4.57-.67.57-.89a.25.25,0,0,0,0-.08c-.07-.2-.3-.4-1.31-.84a14.63,14.63,0,0,0-2.52-.55,1.23,1.23,0,0,0-1,.28,1.31,1.31,0,0,0-.35,1h0c0,1.23.08,2.48.18,3.73a.92.92,0,0,1-.14.67.52.52,0,0,1-.4.13H19.82a3.08,3.08,0,0,1-1.29-.23c-.81-.36-1.63-.68-2.46-1a1.14,1.14,0,0,0-1,.09,1.24,1.24,0,0,0-.39,1c0,4.27-.13,8.35-.46,12.13A17.51,17.51,0,0,1,13,111c-.32.89-.41,1.36-.07,1.49l.09,0,.11,0a9.41,9.41,0,0,0,4.85-6"/><path class="cls-1" d="M62,102.68c0,.45.44.68,1.32.68h6c.88,0,1.32-.25,1.32-.75,0-.68-1-.68-1.36-.68h-6c-1.06,0-1.29.41-1.29.75"/><path class="cls-1" d="M87.16,108.64a1,1,0,0,0-.71-.14l.12-.12a.25.25,0,0,0,0-.3,9.61,9.61,0,0,0-4.22-3.77.24.24,0,0,0-.25,0,11.59,11.59,0,0,0-2.2,2.52v0a.88.88,0,0,1-1.17.5H64.53a10.26,10.26,0,0,0-1.46-.18,1.33,1.33,0,0,0-1.14.29.9.9,0,0,0-.15.84c.21.54.77.78,1.67.69l1.1-.21H84.81a2.74,2.74,0,0,0,1.11,0,3.33,3.33,0,0,0-.74,1l-.55.74c-.73,1.48-1.48,1.21-1.73,1.13H60.07a6.81,6.81,0,0,0-1.38-.15h0a1.36,1.36,0,0,0-1.2.3.87.87,0,0,0-.13.82c.15.4.56.84,1.67.66l1.11-.17h8.79a.49.49,0,0,1,.37.1.53.53,0,0,1,0,.42,12.84,12.84,0,0,1-1.44,3.05,2,2,0,0,1-1.62,1.07c-1.73,0-3.62,0-5.59-.18a.22.22,0,0,0-.19.07c-.14.14-.25.41-.11,1.47a17,17,0,0,0,.5,2.14,1.4,1.4,0,0,0,.94,1.28.75.75,0,0,0,.8-.56,2.73,2.73,0,0,1,1.43-.41c6.45-.81,12.57-1.81,18.17-3a1.06,1.06,0,0,1,1.25.59l.77,2.12A2.81,2.81,0,0,0,86,122.77a1.76,1.76,0,0,0,.33,0,2.82,2.82,0,0,0,1.7-.7,3.06,3.06,0,0,0,.55-2.83,5.75,5.75,0,0,0-2.16-2.92,10.59,10.59,0,0,0-4.38-1.9,4,4,0,0,0-2.14-.14.26.26,0,0,0-.15.13.65.65,0,0,0,0,.55.91.91,0,0,0,.6.46,3.53,3.53,0,0,1,1.1.83c.46.54.4.7.4.71s0,0-.24.06c-3.67.36-7.54.57-11.48.64H70a3.54,3.54,0,0,1,.58-.52A19.76,19.76,0,0,0,73.68,114a2,2,0,0,1,1.48-1H89.53c.9,0,1.33-.13,1.46-.49,0-.16,0-.41-.85-1.5a15.56,15.56,0,0,0-3-2.43"/><path class="cls-1" d="M90.35,94.64c-.72-.48-1.44-.93-2.12-1.31a2.2,2.2,0,0,0-1.66-.62,2.28,2.28,0,0,0-1.5,1,2.3,2.3,0,0,1-1.39.46H76.81c-.43,0-.61-.19-.61-.64V92.24c0-.43.19-.61.64-.61h10c.9.16,1.5,0,1.77-.52a.25.25,0,0,0,0-.22,11,11,0,0,0-3.08-3.14,1.7,1.7,0,0,0-1.3-.72,1.22,1.22,0,0,0-.91.55q-.9,1.08-1.67,2.18c-.13.25-.4.57-1.28.4H63.15L61.79,90a1.34,1.34,0,0,0-1.17.3.88.88,0,0,0-.13.83c.15.4.55.84,1.67.66l1.1-.18h7.83c.43,0,.61.19.61.64V93.6c0,.43-.19.61-.64.61H63l-.4,0c-.44,0-1-.13-1.1-.46a2,2,0,0,0-.38-.89.25.25,0,0,0-.13-.07c-.29-.07-.5.24-.89,1.27a5.51,5.51,0,0,1-2.74,3l-.06,0a2.59,2.59,0,0,0-.78,2.72,1.82,1.82,0,0,0,.92,1.18,2.71,2.71,0,0,0,3.29-.61l0-.06a7.79,7.79,0,0,0,1-3.91c0-.3.08-.61.71-.68l.58-.07h8c.43,0,.61.19.61.64v6a2,2,0,0,0,1.08,2.43,4.76,4.76,0,0,0,1.23.18,2.17,2.17,0,0,0,2.18-1.47.25.25,0,0,0,0-.09V96.24c0-.43.19-.61.64-.61h7.68a.59.59,0,0,1,.44.13.57.57,0,0,1,.1.43l-.24,1.36c-.27.81-.69.9-1,.9H78.6c-.88,0-1.32.25-1.32.75s.46.72,1.36.72h5.11a3.25,3.25,0,0,0,1.65-.32A36.94,36.94,0,0,0,89,97.37c.83-.69,1.16-.75,1.28-.73a1,1,0,0,0,1.06-.73c0-.47-.3-.89-1-1.26"/><path class="cls-1" d="M69.13,99.49c.88,0,1.32-.25,1.32-.75,0-.68-1-.68-1.36-.68h-5.4c-1.06,0-1.29.41-1.29.75,0,.68,1,.68,1.36.68Z"/><path class="cls-1" d="M84.42,103.64c.88,0,1.32-.25,1.32-.75,0-.68-1-.68-1.36-.68h-6c-1.06,0-1.29.41-1.29.75,0,.68,1,.68,1.36.68Z"/><path class="cls-1" d="M135.69,118.29a.26.26,0,0,0-.05-.12c-.1-.12-.33-.29-1.38-.68a16.41,16.41,0,0,1-4.21-2.74c-.64-.64-.84-1.18-.63-1.65a41.76,41.76,0,0,0,3.13-13.76c.08-.75.42-.85.72-.85h.54c1.11,0,1.41-.18,1.55-.34a.25.25,0,0,0,0-.26,8.54,8.54,0,0,0-2.84-3.2,1.61,1.61,0,0,0-1.35-.61,1.56,1.56,0,0,0-1.06,1l-1,1.18a1.69,1.69,0,0,1-1.34.76h-2.21c-.18,0-.31,0-.35-.09s0-.23,0-.42a52.87,52.87,0,0,0,1.88-6c.67-.36,1-.71,1-1.09s-.2-.59-.62-.83l-.06,0a11.69,11.69,0,0,0-4.28-.47.25.25,0,0,0-.21.23c-.12,1.63-.29,3.27-.5,4.88a2,2,0,0,1-.12.48l-.11-.15c-.68-1.08-1.25-1.56-1.81-1.53a.91.91,0,0,0-.56.25.58.58,0,0,0,0-.36c0-.11-.05-.23-1.21-1.15a9.82,9.82,0,0,0-1.85-1,1.91,1.91,0,0,0-2,.33,1.67,1.67,0,0,1-1.41.58c-.79,0-.79-.34-.79-.5s0-.6.22-.7c.63-.3.89-.64.76-1.06a1.48,1.48,0,0,0-1.34-.77,11.89,11.89,0,0,0-2.51-.36,1.19,1.19,0,0,0-.95.27,1.33,1.33,0,0,0-.36,1V90c0,.3-.11.61-.89.61a2.79,2.79,0,0,1-1.31-.18,13.35,13.35,0,0,0-2.48-1,1,1,0,0,0-1.42,1.1v3a.61.61,0,0,1-.14.45.67.67,0,0,1-.5.12,1.49,1.49,0,0,1-.52,0,1.15,1.15,0,0,0-1,.29.8.8,0,0,0-.13.75c.13.44.51.93,1.57.75a.84.84,0,0,1,.61.15.56.56,0,0,1,.14.42V99a1.66,1.66,0,0,0,.18,1.49,1.1,1.1,0,0,0,.21.2l-.17.1a1.18,1.18,0,0,0-.37,1v5.55a1.79,1.79,0,0,0,.22,1.65,1.86,1.86,0,0,0,1.67.41c1.3-.05,2-.54,2.2-1.45,0-.08.07-.34.72-.34h7.15c.53,0,.61.22.61.47a1.48,1.48,0,0,0,.43,1.13,1.3,1.3,0,0,0,1,.26c.17,0,.23.07.24.1s0,.14-.13.34l0,.06a.85.85,0,0,1-1.23.66h-4a1.31,1.31,0,0,1-.36,0l0,0a1.17,1.17,0,0,1,.58-.39c.45-.2.69-.43.73-.71a.75.75,0,0,0-.32-.67,4,4,0,0,0-1.82-.62l-1.26-.29c-.79-.05-1.42.44-1.82,1.48l-.13.33c-.34.63-.73.94-1.22.94a19.85,19.85,0,0,1-4.19-.18c-1.05-.07-1.29,0-1.38.21a.25.25,0,0,0,0,.16l.18.84c.16.52.71.71,1.64.56a16.55,16.55,0,0,1,3.49-.17c.17,0,.22,0,.23,0s.06.12-.2.56a27.32,27.32,0,0,1-2.51,4.17,1.71,1.71,0,0,0-.53,1.43,1.41,1.41,0,0,0,.89.92,2.66,2.66,0,0,0,3.48-.92c.51-.84.95-.79,1.24-.68l.48.17c.23.11.37.23.38.33s0,.26-.45.59a22.76,22.76,0,0,1-7.07,3.18l-.1.05a.33.33,0,0,0-.12.37c.07.22.31.34,1.44.39A19.53,19.53,0,0,0,111,120a1.49,1.49,0,0,1,1.67-.11,17,17,0,0,1,1.71,1.26c1,.94,1.84,1.31,2.56,1.12s1.13-.79,1.47-1.89c.13-1.53-.8-2.65-2.78-3.33-.28-.09-.45-.21-.49-.33s0-.31.22-.53a11.69,11.69,0,0,0,1.72-3.21c.23-.61.56-.91,1-.91H120c1,0,1.26-.07,1.38-.14a.25.25,0,0,0,.09-.09,1,1,0,0,0-.16-1.27,15.38,15.38,0,0,0-1.65-1.93,1.87,1.87,0,0,1-.63-1.47c0-1,0-1.94.07-2.86a1.1,1.1,0,0,1,.28-.19l.24-.11c-.27.7-.23.88-.15,1a.26.26,0,0,0,.08.08c.26.16.55,0,1.68-1.34l.58-.72a2.42,2.42,0,0,1,.37-.41.5.5,0,0,1,.07.19,59.27,59.27,0,0,0,2.26,10.09,2,2,0,0,1-.05,1.72,19.87,19.87,0,0,1-5.9,6.65c-.22.11-.87.43-.82,1a.26.26,0,0,0,0,.1c.15.25.53.26,1.45,0a13.58,13.58,0,0,0,6.56-4c.45-.48.7-.52.8-.52s.16,0,.3.25a14.67,14.67,0,0,0,4.29,4.58.26.26,0,0,0,.15,0h0c.17,0,.35-.16,1.05-1.5a5.8,5.8,0,0,1,2.06-2c1-.37,1.28-.61,1.23-.92m-7.46-19.13h0a47,47,0,0,1-1.67,10.41.88.88,0,0,1-.19.38s-.12,0-.31-.37a31,31,0,0,1-2.59-8.12l0-.06c-.24-.5-.06-1.15.56-1.95.36-.64.77-.95,1.25-.95h2.47a.52.52,0,0,1,.39.12.76.76,0,0,1,.11.54M112.68,104c0-.43.19-.61.64-.61h.89c.3,0,.61.09.61.75v1.47c0,.43-.19.61-.64.61h-.89c-.43,0-.61-.19-.61-.64Zm2-10.36c0,.43-.19.61-.64.61h-.75c-.43,0-.61-.19-.61-.64v-.89c0-.3.11-.61.89-.61l1.08,0a4.92,4.92,0,0,1,0,.76Zm-2,2.65c0-.43.19-.61.64-.61h.79c.3,0,.57.08.57.68v1c0,.43-.19.61-.64.61h-.75c-.43,0-.61-.19-.61-.64Zm6.85-3.45-.28.35a3.55,3.55,0,0,1-.43.44.55.55,0,0,1,.34-.73,2.42,2.42,0,0,0,.51-.31,2.27,2.27,0,0,0-.13.25M118.9,102a9.76,9.76,0,0,0-1.85-1,2.54,2.54,0,0,0-.8-.14,1.7,1.7,0,0,0-1.2.48,2.18,2.18,0,0,1-1.58.57c-.69,0-.79-.33-.79-.64V100c0-.43.19-.61.64-.61H114c.59,0,.68.12.68.12h0c.21,1.06.82,1.26,1.25,1.23a2.58,2.58,0,0,0,2.78-1.12.26.26,0,0,0,0-.12l0-3.22c0-.43.19-.61.64-.61h2a.56.56,0,0,1,.43.13.57.57,0,0,1,.08.44A29.58,29.58,0,0,1,120,103a8,8,0,0,0-1.13-1m-10.4-4.72c0,.43-.19.61-.64.61h-.72c-.43,0-.61-.19-.61-.64v-1c0-.43.19-.61.64-.61h.75c.3,0,.57.08.57.68Zm0-3.68c0,.43-.19.61-.64.61h-.72c-.43,0-.61-.19-.61-.64v-.75a.27.27,0,0,0,0-.06c-.06-.21-.09-.49,0-.62a.68.68,0,0,1,.51-.14,3.4,3.4,0,0,1,.64.07c.69,0,.79.34.79.68Zm-2,6c.05-.22.42-.27.72-.27h.71c.43,0,.61.19.61.64v1.32c0,.18,0,.61-1,.61a2.82,2.82,0,0,1-1.39-.19,18.18,18.18,0,0,0-1.69-.74c1.12-.13,1.79-.6,2-1.38m-.07,4.48a2.42,2.42,0,0,1,.06-.71,8.74,8.74,0,0,1,1.19,0c.76,0,.86.34.86.68v1.54c0,.43-.19.61-.64.61H107c-.43,0-.61-.19-.61-.64Zm6.34,8.58a13.65,13.65,0,0,1-1.26,2.65,1.13,1.13,0,0,1-1.23.5l-1.35-.14c-.16,0-.37-.07-.43-.19s0-.37.19-.69l.93-1.78c.34-.63.73-.94,1.21-.94h1.61a.44.44,0,0,1,.33.1.66.66,0,0,1,0,.51"/><path class="cls-1" d="M160,115.27a2.26,2.26,0,0,0,1.29,1.48,1.45,1.45,0,0,0,.44.07,2.58,2.58,0,0,0,1.38-.5l.05,0a5.08,5.08,0,0,0,1.2-4.1c-.55-3.23-2.22-7.09-5-11.46-.84-1.24-1.06-1.32-1.26-1.3a.31.31,0,0,0-.26.21.24.24,0,0,0,0,.13,7.21,7.21,0,0,0,.37,1.44,31.7,31.7,0,0,1,1.7,12.53,3.14,3.14,0,0,0,.05,1.56"/><path class="cls-1" d="M154.9,96.06a.26.26,0,0,0,0,.16l.18.84c.13.45.53.67,1.19.67l.45,0,1.13-.21H176c1.08,0,1.35-.15,1.48-.3a.23.23,0,0,0,0-.08c.06-.18,0-.43-.8-1.54a14.37,14.37,0,0,0-2-1.79c-.63-.63-1.16-.92-1.64-.87a1.07,1.07,0,0,0-.8.52c-.41.48-.79,1-1.12,1.45a6,6,0,0,1-.93,1.13,6.15,6.15,0,0,1-1.19.05c-.79,0-.89-.33-.89-.64V91.31a4.66,4.66,0,0,1,0-.8,1.39,1.39,0,0,0,.89-.67.91.91,0,0,0,0-.78A.24.24,0,0,0,169,89a8.62,8.62,0,0,0-4-.9,1.24,1.24,0,0,0-1,.32,1.36,1.36,0,0,0-.33,1v6c0,.43-.19.61-.64.61h-5.28a12.35,12.35,0,0,0-1.49-.18c-1.06-.1-1.29,0-1.39.17"/><path class="cls-1" d="M153.91,99.7c-.09-.36-.47-.61-1.13-.79a.67.67,0,0,1-.32-1q1.38-2.88,2.66-5.74c.17-.86.58-1.33,1.25-1.41l.06,0a1.44,1.44,0,0,0,.6-.4.26.26,0,0,0,0-.07.94.94,0,0,0,0-.77,1.63,1.63,0,0,0-1.09-.71,11.49,11.49,0,0,0-3.23-1.1,1.28,1.28,0,0,0-1.6,1.14h0a36,36,0,0,1-6.28,16.39c-.84,1.1-.85,1.32-.78,1.5a.26.26,0,0,0,.05.08c.19.19.48.16,1.58-.52a24,24,0,0,0,2.38-2.16,1.8,1.8,0,0,1,.46-.37.84.84,0,0,1,0,.15v16.19a5.41,5.41,0,0,0,.09,1.43,1.67,1.67,0,0,0,1.65,1.14,3.92,3.92,0,0,0,.63.05,2,2,0,0,0,2.08-1.55.25.25,0,0,0,0-.07V101.85a1.68,1.68,0,0,1,.49-1.25,1,1,0,0,0,.4-.9"/><path class="cls-1" d="M178.73,119.17a12.79,12.79,0,0,0-4.23-3.68l-.08,0c-.21,0-.51.05-1.55,1.31l-.55.74a2.86,2.86,0,0,1-.89,1.06,26.35,26.35,0,0,1-2.69.07c-.23,0-.28-.05-.28-.05s0-.1.16-.42A25.16,25.16,0,0,0,170.8,114a64.55,64.55,0,0,0,3.48-11.23c.21-.93.42-1.06.46-1.07.46-.18.7-.41.74-.7s-.13-.56-.55-.87a17,17,0,0,0-3.76-.84,1.27,1.27,0,0,0-1,.26,1.32,1.32,0,0,0-.37,1,88.42,88.42,0,0,1-2.49,17.16c-.24.8-.65.89-.94.89h-9.67a10,10,0,0,0-1.46-.18,1.33,1.33,0,0,0-1.17.3.87.87,0,0,0-.13.82c.16.48.6.72,1.32.72l.35,0,1.1-.21H177c1.26.25,1.65-.24,1.76-.69a.25.25,0,0,0,0-.21"/><path class="cls-1" d="M205.94,93.1a5.09,5.09,0,0,1,1.54,2.73,3.26,3.26,0,0,0,1.34,2.44,1.91,1.91,0,0,0,.95.23,3.37,3.37,0,0,0,1.24-.27l.06,0a2.65,2.65,0,0,0,1.17-2.29c-.08-1.62-1.16-2.89-3.22-3.76a8.5,8.5,0,0,0-2.7-.66c-.93,0-1.34.08-1.43.39a.24.24,0,0,0,0,.11c0,.16.13.37,1.07,1.1"/><path class="cls-1" d="M208.22,101.34a12.91,12.91,0,0,0-2.49-.84c-.4-.08-1.35-.26-1.47.3a.25.25,0,0,0,0,.05c0,.16.09.37,1.12,1.36a6,6,0,0,1,1.1,2.48,3.69,3.69,0,0,0,1.17,2.88,2.11,2.11,0,0,0,1.26.38,3.76,3.76,0,0,0,1-.14l.06,0a2.24,2.24,0,0,0,1.18-1.72c.48-1.79-.48-3.37-2.89-4.72"/><path class="cls-1" d="M201.57,110.32l.06,0a2.36,2.36,0,0,0,1.93.35,2.32,2.32,0,0,0,1.29-1.46c.46-1.53-.19-3-1.95-4.53a12.35,12.35,0,0,0-2.57-1.5c-.61-.22-.91-.56-.91-1v-1.39c0-.43.19-.61.64-.61h3.5c1.09,0,1.35-.16,1.47-.34s.07-.5-.52-1.61A9.56,9.56,0,0,0,202.19,96l-.09,0a.9.9,0,0,0-1,.56c-.35.47-.68,1-1,1.44a1.69,1.69,0,0,1-.63.84,3.9,3.9,0,0,1,0-.67V93a.92.92,0,0,1,.68-.94,11,11,0,0,1,3.27-.71.91.91,0,0,0,1.1-.62.26.26,0,0,0,0-.09,1.54,1.54,0,0,0-.93-1.31,16.69,16.69,0,0,0-2.87-1.62c-.35-.28-.92-.4-1.73.49a32,32,0,0,1-8.46,4.34c-.93.21-1.45.48-1.66.83a.24.24,0,0,0,0,.17.67.67,0,0,0,.33.45.37.37,0,0,0,.14,0,27.29,27.29,0,0,0,4.85-.61.86.86,0,0,1,.66.07.46.46,0,0,1,.12.36v4.29c0,.43-.19.61-.65.61a18.29,18.29,0,0,1-4-.18,1.35,1.35,0,0,0-1.16.31.78.78,0,0,0-.13.71c.09.39.42.84,1.51.76a18.72,18.72,0,0,1,3.67-.17.57.57,0,0,1,.41.12.59.59,0,0,1,.06.44,48.14,48.14,0,0,1-5,13.67c-.47,1.09-.45,1.42-.23,1.63s.59.08,1.81-.77a12.35,12.35,0,0,0,3.73-5.83v10.77a2.49,2.49,0,0,0,.59,2.09,1.9,1.9,0,0,0,1.32.44,3.63,3.63,0,0,0,.6-.05,1.86,1.86,0,0,0,2-1.54V105.39s0-.07,0-.09a2.23,2.23,0,0,1,.35.35,8.19,8.19,0,0,1,.9,2.75,2.92,2.92,0,0,0,.89,1.91"/><path class="cls-1" d="M221.67,106a13.82,13.82,0,0,0-2.13-.85,1.33,1.33,0,0,0-1.12-.18,1.54,1.54,0,0,0-.86,1,2.14,2.14,0,0,1-.17.23,2.34,2.34,0,0,1,0-.3V91.45a3.11,3.11,0,0,1,.07-.83,1.82,1.82,0,0,0,1.13-.85.27.27,0,0,0,0-.08,1.21,1.21,0,0,0-.31-.94,2.1,2.1,0,0,0-1.58-.5h0a21.75,21.75,0,0,0-2.46-.36,1.17,1.17,0,0,0-.94.28,1.35,1.35,0,0,0-.33,1V108c0,.29-.08.64-.74.79-5.17,1.28-8.9,2.11-11.1,2.46-.54.1-.86.28-1,.56a.75.75,0,0,0,.14.73c.34.46,1,.51,1.86.16a43.83,43.83,0,0,1,4.69-1.21l5.35-1.21a.84.84,0,0,1,.66,0,.44.44,0,0,1,.12.35v9.7a2.32,2.32,0,0,0,.61,2,2,2,0,0,0,1.34.42,5.25,5.25,0,0,0,1.22-.17l.06,0a2.08,2.08,0,0,0,1.2-2.5V109.86c0-.29.1-.7,1-.94l3.52-.85c1,0,1.3-.47,1.35-.83a.22.22,0,0,0,0-.06c0-.2-.17-.47-1.53-1.23"/><path class="cls-1" d="M265.65,117.69a22.81,22.81,0,0,1-6.79-2.62c-.23-.13-.51-.33-.55-.56a.71.71,0,0,1,.25-.55,20.14,20.14,0,0,0,4.53-7.76,1.11,1.11,0,0,1,1-.83,1.06,1.06,0,0,0,.72-.72c.07-.35-.1-.74-.56-1.21a14.35,14.35,0,0,0-2.62-1.58,1.65,1.65,0,0,0-1.27-.33,1.92,1.92,0,0,0-1.17.9,2.4,2.4,0,0,1-1.67.6c-.73,0-.82-.33-.82-.64V97c0-.43.19-.61.64-.61h7.61c.87.13,1.45,0,1.72-.48a.25.25,0,0,0,0-.23,8.23,8.23,0,0,0-2.88-3.08,1.32,1.32,0,0,0-2.41.41l-1,1.18a1.76,1.76,0,0,1-1.38.73h-1.75c-.43,0-.61-.19-.61-.64V90.56a1,1,0,0,1,.43-1,1.27,1.27,0,0,0,.65-.81.62.62,0,0,0-.17-.5l-.06,0a9.29,9.29,0,0,0-4.08-.89,1.13,1.13,0,0,0-.85.28,1.54,1.54,0,0,0-.38,1.14v5.5c0,.43-.19.61-.64.61h-4.75a1.81,1.81,0,0,1-1.3-.51c-.59-.52-.84-.61-1-.63a.23.23,0,0,0-.15,0c-.13.07-.37.26-1.11,1.25-.64,1.22-1,1.35-1.22,1.31,0,0-.1-.1-.1-.66V90.49c0-.32,0-.71.3-.82.46-.26.72-.53.77-.83a.74.74,0,0,0-.2-.63l-.07-.05a9.9,9.9,0,0,0-3.94-.82,1.17,1.17,0,0,0-.91.3,1.56,1.56,0,0,0-.39,1.16v6.9c0,.43-.19.61-.66.61a14.19,14.19,0,0,1-2.83-.14,1.39,1.39,0,0,0-1.18.32.86.86,0,0,0-.15.78c.11.39.48.82,1.65.68a10.14,10.14,0,0,1,2.56-.17c.43,0,.61.19.61.64v5.18a.88.88,0,0,1-.68.91c-.92.28-1.81.52-2.66.71a1.69,1.69,0,0,0-1.12.66,1.38,1.38,0,0,0-.14,1.08,29.42,29.42,0,0,0,1.15,3.35.25.25,0,0,0,.05.08c.51.54.89.74,1.23.63s.49-.69.52-.89a1.88,1.88,0,0,1,.93-1.18c.52-.35.67-.29.67-.3s0,.06,0,.23v8a5.65,5.65,0,0,1,0,.94,3.64,3.64,0,0,1-2.65.34c-.94-.05-1.41,0-1.56.35a.25.25,0,0,0,0,.11c0,.23.19.46,1.2,1a3.34,3.34,0,0,1,1.68,1.61c.27,1.21,1,1.48,1.63,1.48h.07a4.49,4.49,0,0,0,4.14-3.33.24.24,0,0,0,0-.07V106a1.79,1.79,0,0,1,.76-1.38q1.65-1.33,3.38-2.62c.87-.84,1.09-1.21.88-1.48a.25.25,0,0,0-.1-.08c-.16-.07-.4-.06-1.7.61a27.09,27.09,0,0,0-2.48,1.26c-.51.28-.65.21-.67.2s-.07-.1-.07-.27V98.39c0-.43.19-.61.64-.61h3.22c1,0,1.31-.12,1.45-.24l.05-.06a.9.9,0,0,0-.13-1.1,1.92,1.92,0,0,1,.42,0h4c.43,0,.61.19.61.64v5.43c0,.43-.19.61-.64.61h-3.71a8.44,8.44,0,0,0-1.5-.15h0a1.23,1.23,0,0,0-1.08.33.81.81,0,0,0-.09.75c.15.4.54.83,1.63.69a2.2,2.2,0,0,1,.65-.1c.77,0,.89.31.93.63a35.24,35.24,0,0,0,3.65,9.24.92.92,0,0,1-.11,1.41,29.23,29.23,0,0,1-9.19,5.46c-1.08.47-1.22.64-1.28.78a.25.25,0,0,0,.06.27c.14.14.4.25,1.47.18a27,27,0,0,0,10.82-4.4c.36-.24.94-.47,1.84.38a26.72,26.72,0,0,0,5.79,3.73c1.11.4,1.42.39,1.58.23a.24.24,0,0,0,.06-.1,5.32,5.32,0,0,1,2.76-3.07c1.18-.5,1.34-.7,1.39-.87a.23.23,0,0,0,0-.08c0-.29-.25-.47-1.6-.68m-7-12.53a18.54,18.54,0,0,1-3,6.51,1,1,0,0,1-.62.45.92.92,0,0,1-.68-.29,18.2,18.2,0,0,1-4.33-6.59c-.15-.44-.08-.6,0-.65a.4.4,0,0,1,.31-.1h7.93a.49.49,0,0,1,.38.12.7.7,0,0,1,.05.54"/><path class="cls-2" d="M15.1,142.4a2.87,2.87,0,0,0,1.69.6,1.43,1.43,0,0,0,1.56-1.44c0-.83-.24-1.4-2.23-2.67-1.28-.81-3-1.77-3-4.25s1.89-3.87,4.13-3.87a22.33,22.33,0,0,1,3.41.39,24.48,24.48,0,0,0-.32,3.25,1.27,1.27,0,0,1-.92,0,3.57,3.57,0,0,0-.88-2.17,1.89,1.89,0,0,0-1.39-.48,1.54,1.54,0,0,0-1.52,1.65,2.11,2.11,0,0,0,1.22,1.88L19,136.69a3.62,3.62,0,0,1,2,3.38c0,2.17-1.61,4.08-4.67,4.08a6.82,6.82,0,0,1-3.11-.73,13.87,13.87,0,0,1-.73-3.56,1.4,1.4,0,0,1,.92-.33,6.45,6.45,0,0,0,1.65,2.87"/><path class="cls-2" d="M23,131.09c.49,0,1.09.06,2.87.06,1.59,0,2.55-.06,3-.06a1.65,1.65,0,0,1,0,1,4.38,4.38,0,0,0-1,.21c-.37.17-.43.48-.43,1,0,.87,0,1.92,0,3.08a.4.4,0,0,0,.09.17,17.28,17.28,0,0,0,2.29,0,17.28,17.28,0,0,0,2,0c.06,0,.13-.08.13-.12,0-1,0-2.1,0-3.29,0-.27-.07-.65-.34-.75a3.73,3.73,0,0,0-1.22-.27,1.41,1.41,0,0,1,0-1c1,0,1.44.06,3,.06s2.19-.06,2.89-.06a1.32,1.32,0,0,1,0,1,3,3,0,0,0-1,.25c-.36.15-.41.42-.43,1.08,0,1.35,0,2.37,0,4.1,0,1.42,0,3.1,0,4,0,.38.08.79.41,1a5.78,5.78,0,0,0,1.31.31,2,2,0,0,1-.11,1c-.43,0-1.37-.06-3-.06s-2.59.06-3,.06a1.31,1.31,0,0,1,0-1,5.88,5.88,0,0,0,1.07-.23c.28-.11.41-.4.43-.86,0-1,0-2.1,0-3.46,0,0,0-.12-.09-.12-.36,0-1.29,0-2.14,0a10.91,10.91,0,0,0-2.27.06.33.33,0,0,0,0,.13c0,1.33,0,2.42,0,3.17,0,.5.06.88.49,1a8.08,8.08,0,0,0,1.18.29,1.5,1.5,0,0,1-.09,1c-.34,0-1.24-.06-3.24-.06-1.56,0-2.51.06-2.83.06a1.66,1.66,0,0,1,0-1,8.6,8.6,0,0,0,.94-.23c.51-.15.64-.5.68-1.23,0-.31,0-2.25,0-4.12,0-2.06,0-3.27,0-3.89s-.08-.92-.47-1a5.62,5.62,0,0,0-1.09-.23,1.81,1.81,0,0,1,0-1"/><path class="cls-2" d="M38.25,131.09c.92,0,2.1.06,3,.06h4.07a17.42,17.42,0,0,0,2.57-.14s.07,0,.09.1a30.26,30.26,0,0,0-.24,3.27,1.69,1.69,0,0,1-1,.08,6.15,6.15,0,0,0-.3-1.35.89.89,0,0,0-.82-.61c-.6,0-2.4,0-2.68,0-.09,0-.19.29-.19.4,0,1.31,0,2.23,0,3.65a.17.17,0,0,0,.15.17c.49,0,1.58,0,2.21,0,.34,0,.47-.17.56-.58.06-.21.11-.58.17-.87a2,2,0,0,1,1.11.08c0,.48-.11,1.52-.11,2.12s0,1.71,0,2.21a1.7,1.7,0,0,1-1.07,0l-.21-.92a.6.6,0,0,0-.56-.48c-.34,0-1.58,0-2.14,0-.06,0-.15.15-.15.19v3.15a.7.7,0,0,0,.41.69,12.72,12.72,0,0,0,2.61.19,1.34,1.34,0,0,0,1.35-.73,9.79,9.79,0,0,0,.94-1.77,2.06,2.06,0,0,1,1,.42,18.32,18.32,0,0,1-1,3.14c-.06.13-.15.35-1,.35-1.43,0-3.3-.08-5.72-.08-1,0-2.59.06-3.62.06a3,3,0,0,1,0-1,10,10,0,0,0,1.5-.29c.3-.08.54-.29.54-.92.06-1.23,0-2.06,0-4.69,0-1.46,0-3,0-3.81,0-.6-.24-.73-.54-.83a5.17,5.17,0,0,0-1.11-.21,1.79,1.79,0,0,1,.06-1"/><path class="cls-2" d="M50.33,131.09c.64,0,1.37.06,2.83.06.62,0,1.33,0,1.71,0a5.67,5.67,0,0,0,.75,1.25c1.58,2.17,4.05,5.64,5.21,7.08l.11,0c0-2.67,0-4.29-.11-5.89,0-.69-.23-1.06-.86-1.21a12.38,12.38,0,0,0-1.22-.23,2.26,2.26,0,0,1,0-1c.41,0,1.26.06,2.68.06s2.06-.06,2.51-.06a2.25,2.25,0,0,1,0,1,5.28,5.28,0,0,0-.75.19c-.51.17-.79.27-.88,1.31-.11,1.65-.17,4.65-.15,7.39,0,1,0,2.14,0,3a13.75,13.75,0,0,0-2.08,0c-1.42-2-4.84-7.06-6.51-9.35-.08-.08-.11,0-.11,0,0,2.29,0,5.65.06,6.54s.36,1.27.86,1.42c.32.08.66.15,1.18.25a1.68,1.68,0,0,1,0,1c-.86,0-1.74-.06-2.61-.06s-1.87.06-2.68.06a2.25,2.25,0,0,1,0-1,5.8,5.8,0,0,0,1.18-.31,1.28,1.28,0,0,0,.64-1.21c.11-1.15.17-5.35.17-7.56a1.31,1.31,0,0,0-.64-1.27,4.25,4.25,0,0,0-1.29-.35,2.79,2.79,0,0,1,0-1"/><path class="cls-2" d="M77,143.36a16.06,16.06,0,0,1-4.44.79c-4.35,0-7-2.25-7-6.73a6.15,6.15,0,0,1,3.45-5.85,8.55,8.55,0,0,1,3.88-.79,37.07,37.07,0,0,1,4.07.48,24.18,24.18,0,0,0-.32,4,1.3,1.3,0,0,1-1,.1c-.19-1.44-.43-2.21-.94-2.64a3.71,3.71,0,0,0-2.42-.81c-1.84,0-3.37,1.17-3.37,5.16,0,3.27,1.52,5.92,4,5.92a1.19,1.19,0,0,0,.77-.33,1.81,1.81,0,0,0,.15-.6,12.35,12.35,0,0,0,0-1.69c0-.52-.06-1-.6-1.21-.36-.12-.77-.12-1.45-.27a2.15,2.15,0,0,1,0-1c.51,0,1.91.06,3.43.06s2.14,0,2.59-.06a2.44,2.44,0,0,1,0,1,6.4,6.4,0,0,0-.71.17c-.3.1-.43.31-.43.81s0,2.23,0,2.33.13.27.45.56a1.58,1.58,0,0,1-.17.6"/><path class="cls-2" d="M82.93,131.09c.67,0,1.63.06,2.64.06,1.27,0,2.76,0,3.11-.06a1.64,1.64,0,0,1,0,1,3.91,3.91,0,0,0-.52.13c-.32.08-.21.38-.09.67.28.75,1.48,3.44,1.78,4,0,0,.11,0,.15,0a27.52,27.52,0,0,0,1.78-4c0-.29,0-.5-.41-.6s-.68-.15-1.09-.21a2.36,2.36,0,0,1,.09-1c.71,0,1.31.06,2.53.06s1.69-.06,2.4-.06a1.83,1.83,0,0,1,0,1c-.41.1-.83.15-1,.23-.56.23-.79.4-1.37,1.38-.73,1.27-1.84,3.48-2.25,4.39a1.93,1.93,0,0,0-.23,1c0,1,0,1.21,0,2.27,0,.63.05,1.13.62,1.25.32.08.73.15,1.18.25a2,2,0,0,1-.09,1c-.54,0-2.21-.08-3.34-.08-1.5,0-2,.08-3,.08a1.73,1.73,0,0,1,0-1,10.63,10.63,0,0,0,1.29-.25c.47-.14.56-.54.56-1.12,0-1,0-1.27,0-2.19a3.46,3.46,0,0,0-.28-1.1c-.34-.85-1.42-3.08-2.1-4.43-.53-1.06-.86-1.36-1.31-1.5a5.53,5.53,0,0,0-1.13-.21,1.88,1.88,0,0,1,.06-1"/><path class="cls-2" d="M95.55,131.09c1,0,2.19.06,3.15.06s2.12-.06,3.13-.06a1.81,1.81,0,0,1,0,1c-.36.06-.77.19-1,.23-.51.13-.62.52-.64,1.19,0,1.52,0,2.42,0,3.54,0,.56,0,2,.11,2.81a2.58,2.58,0,0,0,2.92,2.46c1.2,0,2.66-.33,2.81-3.37.07-1.58.09-4.62,0-5.31s-.13-1.12-.77-1.27a9,9,0,0,0-1.35-.27,2.59,2.59,0,0,1,0-1c.88,0,1.76.06,2.64.06,1.74,0,2.14-.06,2.53-.06a1.5,1.5,0,0,1,0,1c-.3.08-.58.1-.9.21s-.62.46-.68,1.5c0,.67-.11,3.23-.17,4.65-.17,4.44-2.27,5.71-5.19,5.71-3.54,0-4.67-2-4.82-4.06-.11-1.56-.11-5.33-.13-6.68a1,1,0,0,0-.6-1,6.08,6.08,0,0,0-1.14-.27,2.25,2.25,0,0,1,0-1"/><path class="cls-2" d="M110.15,131.09c.64,0,1.37.06,2.83.06.62,0,1.33,0,1.71,0a5.7,5.7,0,0,0,.75,1.25c1.57,2.17,4.05,5.64,5.21,7.08l.11,0c0-2.67,0-4.29-.11-5.89,0-.69-.23-1.06-.86-1.21a12.38,12.38,0,0,0-1.22-.23,2.25,2.25,0,0,1,0-1c.41,0,1.26.06,2.68.06s2.06-.06,2.51-.06a2.28,2.28,0,0,1,0,1,5.32,5.32,0,0,0-.75.19c-.51.17-.79.27-.88,1.31-.11,1.65-.17,4.65-.15,7.39,0,1,0,2.14,0,3a13.75,13.75,0,0,0-2.08,0c-1.42-2-4.84-7.06-6.51-9.35-.08-.08-.11,0-.11,0,0,2.29,0,5.65.06,6.54s.36,1.27.86,1.42c.32.08.66.15,1.18.25a1.68,1.68,0,0,1,0,1c-.86,0-1.74-.06-2.61-.06s-1.88.06-2.68.06a2.28,2.28,0,0,1,0-1,5.79,5.79,0,0,0,1.18-.31,1.28,1.28,0,0,0,.64-1.21c.11-1.15.17-5.35.17-7.56a1.31,1.31,0,0,0-.64-1.27,4.25,4.25,0,0,0-1.29-.35,2.77,2.77,0,0,1,0-1"/><path class="cls-2" d="M138.2,143.84c-.79,0-2-.06-3.4-.06-1.63,0-2.81.06-3.47.06a1.23,1.23,0,0,1,0-1c.56-.08,1-.17,1.27-.23.56-.15.69-.37.75-1.17.09-2.19.08-5.35.08-8.68,0,0-.06-.19-.11-.19a14.74,14.74,0,0,0-1.67,0c-.3,0-.58.13-.88.81a16.37,16.37,0,0,0-.64,1.77c-.09.1-.92-.08-1-.29.15-.87.38-2.67.45-3.79,0,0,.17-.19.22-.17a5.42,5.42,0,0,0,1.8.27h6.56a8.27,8.27,0,0,0,2.36-.23c.07,0,.13.17.13.21a26.66,26.66,0,0,0-.49,3.85,1.66,1.66,0,0,1-1,.06,11,11,0,0,0-.36-1.9c-.13-.48-.34-.6-.66-.65a13.57,13.57,0,0,0-1.82,0,.25.25,0,0,0-.09.19c0,3-.06,7.79,0,8.93,0,.21,0,.71.43.92a9.16,9.16,0,0,0,1.54.31,1.55,1.55,0,0,1-.06,1"/><path class="cls-2" d="M142.34,131.09c.92,0,2.1.06,3,.06h4.07A17.41,17.41,0,0,0,152,131s.08,0,.09.1a30.05,30.05,0,0,0-.24,3.27,1.69,1.69,0,0,1-1,.08,6.14,6.14,0,0,0-.3-1.35.89.89,0,0,0-.82-.61c-.6,0-2.4,0-2.68,0-.09,0-.19.29-.19.4,0,1.31,0,2.23,0,3.65a.17.17,0,0,0,.15.17c.49,0,1.58,0,2.21,0,.34,0,.47-.17.56-.58.06-.21.11-.58.17-.87a2,2,0,0,1,1.11.08c0,.48-.11,1.52-.11,2.12s0,1.71,0,2.21a1.7,1.7,0,0,1-1.07,0l-.21-.92a.6.6,0,0,0-.56-.48c-.34,0-1.58,0-2.14,0-.06,0-.15.15-.15.19v3.15a.71.71,0,0,0,.41.69,12.73,12.73,0,0,0,2.61.19,1.34,1.34,0,0,0,1.35-.73,9.86,9.86,0,0,0,.94-1.77,2.06,2.06,0,0,1,1,.42,18.33,18.33,0,0,1-1,3.14c-.06.13-.15.35-1,.35-1.42,0-3.3-.08-5.72-.08-1,0-2.59.06-3.62.06a2.93,2.93,0,0,1,0-1,10.07,10.07,0,0,0,1.5-.29c.3-.08.54-.29.54-.92.06-1.23,0-2.06,0-4.69,0-1.46,0-3,0-3.81,0-.6-.24-.73-.54-.83a5.17,5.17,0,0,0-1.11-.21,1.8,1.8,0,0,1,.06-1"/><path class="cls-2" d="M163.36,132.4a3.8,3.8,0,0,0-2.06-.52c-2,0-3.24,1.69-3.24,5.27,0,2.33,1,5.56,4.13,5.56a2.18,2.18,0,0,0,1.58-.56,9.67,9.67,0,0,0,1.58-2.14,1.59,1.59,0,0,1,.77.62,7.53,7.53,0,0,1-1.69,3,6.89,6.89,0,0,1-2.78.54c-4.26,0-6.86-2.27-6.86-6.81a6.23,6.23,0,0,1,3.17-5.71,7.87,7.87,0,0,1,3.77-.85c1.8,0,3.24.35,4,.38-.09.73-.24,2.5-.24,3.62-.09.17-.9.25-.94.1-.26-1.33-.37-2-1.12-2.48"/><path class="cls-2" d="M168,131.09c.49,0,1.09.06,2.87.06,1.59,0,2.55-.06,3-.06a1.65,1.65,0,0,1,0,1,4.35,4.35,0,0,0-1,.21c-.37.17-.43.48-.43,1,0,.87,0,1.92,0,3.08a.4.4,0,0,0,.09.17,56.53,56.53,0,0,0,4.31,0c.06,0,.13-.08.13-.12,0-1,0-2.1,0-3.29,0-.27-.08-.65-.34-.75a3.74,3.74,0,0,0-1.22-.27,1.41,1.41,0,0,1,0-1c1,0,1.44.06,3,.06s2.19-.06,2.89-.06a1.31,1.31,0,0,1,0,1,3,3,0,0,0-1,.25c-.36.15-.41.42-.43,1.08,0,1.35,0,2.37,0,4.1,0,1.42,0,3.1,0,4,0,.38.08.79.41,1a5.77,5.77,0,0,0,1.31.31,2,2,0,0,1-.11,1c-.43,0-1.37-.06-3-.06s-2.59.06-3,.06a1.32,1.32,0,0,1,0-1,5.89,5.89,0,0,0,1.07-.23c.28-.11.41-.4.43-.86,0-1,0-2.1,0-3.46,0,0,0-.12-.09-.12-.35,0-1.29,0-2.14,0a10.89,10.89,0,0,0-2.27.06.31.31,0,0,0,0,.13c0,1.33,0,2.42,0,3.17,0,.5.06.88.49,1a8,8,0,0,0,1.18.29,1.5,1.5,0,0,1-.09,1c-.34,0-1.24-.06-3.24-.06-1.56,0-2.51.06-2.83.06a1.65,1.65,0,0,1,0-1,8.72,8.72,0,0,0,.94-.23c.51-.15.64-.5.67-1.23,0-.31,0-2.25,0-4.12,0-2.06,0-3.27,0-3.89s-.08-.92-.47-1a5.61,5.61,0,0,0-1.09-.23,1.81,1.81,0,0,1,0-1"/><path class="cls-2" d="M183,131.09c.64,0,1.37.06,2.83.06.62,0,1.33,0,1.71,0a5.7,5.7,0,0,0,.75,1.25c1.57,2.17,4.05,5.64,5.21,7.08l.11,0c0-2.67,0-4.29-.11-5.89,0-.69-.23-1.06-.86-1.21a12.38,12.38,0,0,0-1.22-.23,2.25,2.25,0,0,1,0-1c.41,0,1.26.06,2.68.06s2.06-.06,2.51-.06a2.28,2.28,0,0,1,0,1,5.32,5.32,0,0,0-.75.19c-.51.17-.79.27-.88,1.31-.11,1.65-.17,4.65-.15,7.39,0,1,0,2.14,0,3a13.75,13.75,0,0,0-2.08,0c-1.42-2-4.84-7.06-6.51-9.35-.08-.08-.11,0-.11,0,0,2.29,0,5.65.06,6.54s.36,1.27.86,1.42c.32.08.66.15,1.18.25a1.68,1.68,0,0,1,0,1c-.86,0-1.74-.06-2.61-.06s-1.88.06-2.68.06a2.28,2.28,0,0,1,0-1,5.79,5.79,0,0,0,1.18-.31,1.28,1.28,0,0,0,.64-1.21c.11-1.15.17-5.35.17-7.56a1.31,1.31,0,0,0-.64-1.27,4.25,4.25,0,0,0-1.29-.35,2.77,2.77,0,0,1,0-1"/><path class="cls-2" d="M199.9,142.26a7.2,7.2,0,0,1-1.59-4.79,6.58,6.58,0,0,1,2.27-5.27,6.84,6.84,0,0,1,4.26-1.42c3.94,0,6,3,6,6.48a7.59,7.59,0,0,1-1.16,4.25,6.14,6.14,0,0,1-5.08,2.64,5.79,5.79,0,0,1-4.69-1.89m6.56.08c.86-.87,1.13-2.54,1.13-4.33,0-2.19-.51-4.27-1.63-5.33a2.31,2.31,0,0,0-1.71-.71,2.13,2.13,0,0,0-1.33.42c-1.05.79-1.37,2.54-1.37,4.46s.47,4.1,1.74,5.31a2.59,2.59,0,0,0,1.82.75,1.91,1.91,0,0,0,1.35-.56"/><path class="cls-2" d="M213,131.09c1,0,1.57.06,3.09.06s2.12,0,2.94-.06a1.82,1.82,0,0,1,0,1,6.65,6.65,0,0,0-1,.21c-.43.15-.51.31-.52.83,0,.33,0,1.25,0,3.48s0,4.52.06,5.06a.8.8,0,0,0,.38.65,11.53,11.53,0,0,0,2.48.13c.36,0,.75-.23,1.07-.83s.84-1.77,1.15-2.5a1.53,1.53,0,0,1,1,.42,19.81,19.81,0,0,1-1.26,4.06c0,.15-.24.29-.9.29-1.63,0-4-.1-5.57-.1-1.84,0-2.55.06-3,.06a1.8,1.8,0,0,1,0-1,9.11,9.11,0,0,0,1.2-.21.78.78,0,0,0,.54-.79c0-.48.05-3.06.05-4.31,0-2.48,0-3.58,0-4.4,0-.44-.17-.73-.54-.83a9.36,9.36,0,0,0-1.14-.21,1.6,1.6,0,0,1,.08-1"/><path class="cls-2" d="M226.81,142.26a7.2,7.2,0,0,1-1.59-4.79,6.58,6.58,0,0,1,2.27-5.27,6.84,6.84,0,0,1,4.26-1.42c3.94,0,6,3,6,6.48a7.59,7.59,0,0,1-1.16,4.25,6.14,6.14,0,0,1-5.08,2.64,5.79,5.79,0,0,1-4.69-1.89m6.56.08c.86-.87,1.13-2.54,1.13-4.33,0-2.19-.51-4.27-1.63-5.33a2.31,2.31,0,0,0-1.71-.71,2.13,2.13,0,0,0-1.33.42c-1.05.79-1.37,2.54-1.37,4.46s.47,4.1,1.74,5.31a2.59,2.59,0,0,0,1.82.75,1.91,1.91,0,0,0,1.35-.56"/><path class="cls-2" d="M251.82,143.36a16.06,16.06,0,0,1-4.44.79c-4.35,0-7-2.25-7-6.73a6.15,6.15,0,0,1,3.45-5.85,8.55,8.55,0,0,1,3.88-.79,37.07,37.07,0,0,1,4.07.48,24.18,24.18,0,0,0-.32,4,1.3,1.3,0,0,1-1,.1c-.19-1.44-.43-2.21-.94-2.64a3.71,3.71,0,0,0-2.42-.81c-1.84,0-3.37,1.17-3.37,5.16,0,3.27,1.52,5.92,4,5.92a1.19,1.19,0,0,0,.77-.33,1.81,1.81,0,0,0,.15-.6,12.36,12.36,0,0,0,0-1.69c0-.52-.06-1-.6-1.21-.36-.12-.77-.12-1.45-.27a2.15,2.15,0,0,1,0-1c.51,0,1.91.06,3.43.06s2.14,0,2.59-.06a2.44,2.44,0,0,1,0,1,6.4,6.4,0,0,0-.71.17c-.3.1-.43.31-.43.81s0,2.23,0,2.33.13.27.45.56a1.58,1.58,0,0,1-.17.6"/><path class="cls-2" d="M253.48,131.09c.67,0,1.63.06,2.64.06,1.27,0,2.76,0,3.11-.06a1.65,1.65,0,0,1,0,1,3.89,3.89,0,0,0-.52.13c-.32.08-.21.38-.09.67.28.75,1.48,3.44,1.78,4,0,0,.11,0,.15,0a27.52,27.52,0,0,0,1.78-4c0-.29,0-.5-.41-.6s-.68-.15-1.09-.21a2.36,2.36,0,0,1,.09-1c.71,0,1.31.06,2.53.06s1.69-.06,2.4-.06a1.83,1.83,0,0,1,0,1c-.41.1-.83.15-1,.23-.56.23-.79.4-1.37,1.38-.73,1.27-1.84,3.48-2.25,4.39a1.93,1.93,0,0,0-.23,1c0,1,0,1.21,0,2.27,0,.63.05,1.13.62,1.25.32.08.73.15,1.18.25a2,2,0,0,1-.09,1c-.54,0-2.21-.08-3.34-.08-1.5,0-2,.08-3,.08a1.73,1.73,0,0,1,0-1,10.63,10.63,0,0,0,1.29-.25c.47-.14.56-.54.56-1.12,0-1,0-1.27,0-2.19a3.46,3.46,0,0,0-.28-1.1c-.34-.85-1.42-3.08-2.1-4.43-.53-1.06-.86-1.36-1.31-1.5a5.53,5.53,0,0,0-1.13-.21,1.88,1.88,0,0,1,.06-1"/></svg>