<svg id="图层_1" data-name="图层 1" xmlns="http://www.w3.org/2000/svg" viewBox="0 0 280 62"><defs><style>.cls-1{fill:#192d79;}.cls-2{fill:#1b94d3;}</style></defs><title>盛雲LOGO2</title><path class="cls-1" d="M74.42,29.51a10.54,10.54,0,0,0-3.52-1.07,13.47,13.47,0,0,0-3.72.08,20.73,20.73,0,0,0-3.59.92A39.84,39.84,0,0,0,57,32.57c-2.09,1.21-4.1,2.52-6.07,3.86L48.21,38.3l1.21.63c.69.37,1.39.78,2.1,1.19l1.34-1.06c1.85-1.46,3.69-2.89,5.59-4.23.95-.67,1.91-1.31,2.89-1.91a32.25,32.25,0,0,1,3-1.66,15.85,15.85,0,0,1,6.5-1.74,10.53,10.53,0,0,1,3.36.53,12.5,12.5,0,0,1,3.12,1.59,11.73,11.73,0,0,0-2.89-2.13M44.16,41.09l-2,1.34c-1,.65-1.94,1.28-2.93,1.88a56.12,56.12,0,0,1-6,3.26q-.76.35-1.53.65c-.51.2-1,.39-1.52.55l-.18.06-.21.06-.42.13c-.22.07-.48.12-.72.19l-.75.15-.76.12a18.88,18.88,0,0,1-6.26-.31,15.46,15.46,0,0,1-5.6-2.41,11.3,11.3,0,0,1-3.7-4.48,13.58,13.58,0,0,1-.89-2.86,17.93,17.93,0,0,1-.26-3c0-.06,0-.12,0-.19V36l0-.44,0-.44v-.24h0v-.1c.07-.52.09-1.05.2-1.55a13.49,13.49,0,0,1,.85-2.94,11.69,11.69,0,0,1,3.63-4.76,17.09,17.09,0,0,1,5.68-2.84,24.11,24.11,0,0,1,3.23-.73c.55-.08,1.1-.16,1.66-.21l.83-.06.79,0h1.18l.31-1,.2-.67.1-.34c0-.11.08-.22.12-.33l.25-.65.29-.63.15-.32.17-.3c.12-.2.22-.41.34-.61.26-.39.5-.79.8-1.16s.59-.73.9-1.09.66-.69,1-1c.17-.17.35-.32.55-.47s.37-.31.57-.45l.59-.43.61-.41c.2-.14.42-.26.63-.39s.42-.25.64-.36c.43-.24.88-.46,1.32-.67l.68-.31.69-.29c.47-.18.94-.36,1.41-.51,1-.31,1.93-.58,2.92-.82.5-.11,1-.21,1.5-.3s1-.17,1.52-.22a22.41,22.41,0,0,0-3.09,0c-.51,0-1,.08-1.54.15s-1,.15-1.54.25-1,.21-1.53.33l-.76.2L37.63,9c-.5.16-1,.33-1.49.53l-.73.31c-.24.11-.49.21-.72.34l-.71.36-.7.4c-.23.13-.45.29-.68.43s-.45.3-.67.46c-.44.31-.86.67-1.28,1A15.62,15.62,0,0,0,29.48,14c-.38.4-.72.84-1.06,1.27-.17.22-.32.46-.47.68l-.23.34-.21.36-.42.72-.36.75c-.06.13-.12.25-.18.38l0,.08h-.87c-.63,0-1.25,0-1.88.09a27.48,27.48,0,0,0-3.74.57,20.13,20.13,0,0,0-7.13,3.07,15.62,15.62,0,0,0-5.17,6.17,10,10,0,0,0-.39.94,9.32,9.32,0,0,0-.34,1l-.29,1c-.08.32-.15.65-.22,1-.16.65-.22,1.3-.32,2l0,.12v0a.63.63,0,0,0,0,.1v.06l0,.22,0,.44,0,.44,0,.22c0,.08,0,.17,0,.25a20,20,0,0,0,0,2,19.4,19.4,0,0,0,.22,2A18.08,18.08,0,0,0,7.4,44.14a15.74,15.74,0,0,0,5.17,6.39,19.4,19.4,0,0,0,7.34,3.17,22.23,22.23,0,0,0,7.85.28l1-.17,1-.22c.33-.09.65-.17,1-.28l.42-.14.21-.07.24-.08c.64-.23,1.22-.46,1.8-.71s1.15-.51,1.71-.79a52.07,52.07,0,0,0,6.34-3.76c2-1.36,3.93-2.81,5.81-4.27l.2-.15c-.69-.48-1.37-1-2-1.39l-1.29-.84"/><path class="cls-2" d="M52,31l.23-.18.69-.51,1.13-.78c.45-.3,1-.64,1.57-1a46,46,0,0,1,4.46-2.4,35.29,35.29,0,0,1,6.24-2.28,24.32,24.32,0,0,1,3.82-.66,17.27,17.27,0,0,1,2.08-.07,16.17,16.17,0,0,1,2.17.2,12.92,12.92,0,0,1,4.39,1.53l.52.32.51.34c.17.12.33.25.49.37l.06,0,0,0,.05,0,.1.09.21.18.11.09.12.11.24.22.12.11.11.11.22.22a12.58,12.58,0,0,1,.82,1,11.75,11.75,0,0,1,1.34,2.19,12.45,12.45,0,0,1,.85,2.47,12.91,12.91,0,0,1,.33,2.61A14.33,14.33,0,0,1,84.87,38a15.23,15.23,0,0,1-.64,2.55,15.86,15.86,0,0,1-1.05,2.41A17.35,17.35,0,0,1,80,47.1a16.6,16.6,0,0,1-4.32,3,15.62,15.62,0,0,1-5,1.46,16.27,16.27,0,0,1-2.59.09l-.64,0-.64-.07-.32,0-.16,0h-.17l-.28,0-.14,0-.15,0-.63-.13-.6-.14c-.4-.1-.79-.21-1.17-.32-.77-.23-1.52-.51-2.25-.8s-1.43-.62-2.11-1l-1-.52-1-.55c-.64-.37-1.26-.75-1.86-1.13s-1.19-.77-1.76-1.16c-1.14-.78-2.23-1.55-3.28-2.29s-2-1.45-3-2.1a29.59,29.59,0,0,0-5.53-3,12.83,12.83,0,0,0-4.7-1,11.45,11.45,0,0,0-1.8.15c-.26,0-.5.1-.73.14l-.6.15-.47.14-.34.11-.28.1.26-.14.32-.17.45-.22.58-.25c.22-.08.45-.18.72-.26a10.4,10.4,0,0,1,1.85-.43,13,13,0,0,1,5.16.38c.49.13,1,.28,1.48.46s1,.38,1.52.6,1,.46,1.55.72,1.05.53,1.58.82c1.06.58,2.14,1.22,3.25,1.87s2.23,1.35,3.4,2A45.42,45.42,0,0,0,62,47.15c.66.24,1.34.45,2,.63.34.09.68.17,1,.25l.52.11.5.09.13,0,.14,0,.29,0h.24l.26,0,.52,0,.52,0a12.78,12.78,0,0,0,6-1.33,13.3,13.3,0,0,0,3.43-2.43,13.75,13.75,0,0,0,4-7.26,11.53,11.53,0,0,0,.19-2,9.66,9.66,0,0,0-.19-2,9.28,9.28,0,0,0-1.51-3.54q-.28-.39-.59-.76l-.16-.18-.08-.09-.08-.08L79,28.6,79,28.51l-.1-.09-.2-.19-.1-.09s0,0,0,0l0,0,0,0-.36-.3-.37-.29-.39-.27A10.62,10.62,0,0,0,74,25.81a15.5,15.5,0,0,0-3.65-.37c-.61,0-1.21,0-1.8.09s-1.17.14-1.74.22c-1.14.18-2.22.43-3.25.69q-.77.2-1.5.42l-1.4.45c-1.81.61-3.36,1.24-4.63,1.79s-2.26,1-2.92,1.35l-.76.38L52,31"/><path class="cls-1" d="M71.48,20.27l.13.25.11.25.22.5,0,.11h.85a16.77,16.77,0,0,1,1.71.13c-.08-.35-.18-.7-.28-1.06l-.21-.62c0-.1-.07-.21-.11-.31l-.13-.31-.26-.62-.3-.6-.15-.3-.17-.3-.35-.59c-.12-.2-.26-.38-.39-.57l-.2-.29-.1-.14-.11-.14-.44-.55-.22-.27-.24-.26-.48-.52c-.16-.17-.34-.33-.5-.49l-.52-.48-.54-.45-.27-.23-.14-.11-.15-.11-.59-.43c-.4-.31-.76-.53-1.14-.77l-.28-.18-.07,0,0,0-.05,0h0L66,10.62l-.62-.35A20.18,20.18,0,0,0,60,8.3l-.34-.08-.34-.06L58.66,8C58.43,8,58.21,8,58,8l-.68-.07c-.23,0-.45,0-.68,0l-.67,0c-.22,0-.45,0-.67,0h-.66a26.2,26.2,0,0,0-5,.63,30.94,30.94,0,0,0-4.23,1.28,33.26,33.26,0,0,0-3.38,1.51c-1,.51-1.8,1-2.46,1.42s-1.17.78-1.5,1-.51.4-.51.4l.59-.25c.39-.16,1-.38,1.68-.65s1.61-.57,2.63-.89,2.18-.64,3.45-.93A38.71,38.71,0,0,1,50,10.65a29.52,29.52,0,0,1,4.57-.2l1.18.08.59.06c.2,0,.4,0,.6.07a23.09,23.09,0,0,1,2.37.47,19.54,19.54,0,0,1,4.55,1.77l.54.3.13.07h0l.07,0,.28.18c.37.24.77.47,1.07.7l.48.35.12.09.12.1.24.19.48.38.45.4c.15.14.3.26.45.4l.42.42.21.21.2.22.39.44.1.11.09.12.18.23c.12.15.24.3.35.46l.32.47.16.24.14.24.29.49.25.5"/><path class="cls-1" d="M13.57,42.08a3.59,3.59,0,0,0,2.1.75A1.78,1.78,0,0,0,17.61,41c0-1-.3-1.74-2.78-3.32-1.59-1-3.76-2.2-3.76-5.29s2.36-4.82,5.14-4.82a27.69,27.69,0,0,1,4.25.49,30.35,30.35,0,0,0-.4,4,1.59,1.59,0,0,1-1.14,0,4.44,4.44,0,0,0-1.1-2.7,2.35,2.35,0,0,0-1.73-.6,1.92,1.92,0,0,0-1.89,2,2.63,2.63,0,0,0,1.52,2.33L18.45,35c1.75,1.14,2.52,2.23,2.52,4.2,0,2.7-2,5.08-5.82,5.08a8.49,8.49,0,0,1-3.88-.91,17.26,17.26,0,0,1-.91-4.43,1.74,1.74,0,0,1,1.14-.41,8,8,0,0,0,2.06,3.58"/><path class="cls-1" d="M22.26,28c.84,0,2,.08,3.29.08,1.59,0,3.43-.05,3.88-.08a2.07,2.07,0,0,1,0,1.24,5,5,0,0,0-.65.16c-.4.1-.26.47-.12.83.35.93,1.84,4.28,2.22,5,0,.05.14,0,.19,0a34.46,34.46,0,0,0,2.22-4.93c0-.36,0-.62-.51-.75s-.84-.18-1.35-.26A3,3,0,0,1,31.56,28c.89,0,1.64.08,3.15.08s2.1-.08,3-.08a2.26,2.26,0,0,1,0,1.24c-.51.13-1,.18-1.26.29-.7.29-1,.49-1.7,1.71-.91,1.58-2.29,4.33-2.8,5.47A2.4,2.4,0,0,0,31.65,38c0,1.24,0,1.5,0,2.83,0,.78.07,1.4.77,1.56.4.1.91.18,1.47.31a2.42,2.42,0,0,1-.12,1.22c-.68,0-2.76-.1-4.16-.1-1.87,0-2.48.1-3.78.1a2.17,2.17,0,0,1,0-1.22,13.19,13.19,0,0,0,1.61-.31c.58-.18.7-.67.7-1.4,0-1.22,0-1.58,0-2.72a4.32,4.32,0,0,0-.35-1.37c-.42-1.06-1.77-3.84-2.62-5.52-.65-1.32-1.07-1.69-1.64-1.87a6.76,6.76,0,0,0-1.4-.26A2.34,2.34,0,0,1,22.26,28"/><path class="cls-1" d="M50.2,43.87c-1,0-2.43-.08-4.23-.08-2,0-3.5.08-4.32.08-.19-.18.11-1.09.28-1.24a8.87,8.87,0,0,0,1.31-.29c.7-.18.86-.47.93-1.45.12-2.72.09-6.66.09-10.81,0-.05-.07-.23-.14-.23a18.13,18.13,0,0,0-2.08,0c-.37,0-.72.16-1.1,1a20.5,20.5,0,0,0-.79,2.2c-.12.13-1.14-.1-1.24-.36.19-1.09.47-3.32.56-4.72,0-.05.21-.23.28-.21a6.75,6.75,0,0,0,2.24.34h8.17a10.22,10.22,0,0,0,2.94-.29c.09,0,.16.21.16.26a33.31,33.31,0,0,0-.61,4.8,2.05,2.05,0,0,1-1.24.08A13.74,13.74,0,0,0,51,30.57c-.16-.6-.42-.75-.82-.8a16.72,16.72,0,0,0-2.27,0,.31.31,0,0,0-.12.23c0,3.76-.07,9.7,0,11.12,0,.26,0,.88.54,1.14a11.47,11.47,0,0,0,1.92.39,1.92,1.92,0,0,1-.07,1.24"/><path class="cls-1" d="M110.36,9.72a3.19,3.19,0,0,1,.84,1.43l0,0a1.38,1.38,0,0,0,1,.79,1.66,1.66,0,0,0,1.34-.51,1.7,1.7,0,0,0,.18-1.48,2.61,2.61,0,0,0-2.42-1.54,2.91,2.91,0,0,0-1.65.23.18.18,0,0,0-.07.11c0,.13,0,.28.73.91"/><path class="cls-1" d="M118.42,31.77a5.26,5.26,0,0,0-2-2,.18.18,0,0,0-.13,0c-.32.12-.67.53-1.09,1.28-.21.31-.34.49-.42.59a3.08,3.08,0,0,1,0-.34v-4a1.54,1.54,0,0,1,.32-.9.65.65,0,0,0,.26-.57c0-.26-.26-.5-.68-.72l-1-.66a1.35,1.35,0,0,0-1.64.2l0,0c-.32.48-.64.44-.85.36h-9.95a1.62,1.62,0,0,1-.7-.08,16.08,16.08,0,0,0-1.86-.84.79.79,0,0,0-.74,0,.83.83,0,0,0-.28.72v6.53c0,.31-.13.43-.44.43l-1.67-.13a.84.84,0,0,0-.72.2.61.61,0,0,0-.12.54c.05.26.24.54.82.54l.33,0,.81-.12h20.93c.71,0,.89,0,1-.1l0,0a.67.67,0,0,0-.12-.91m-6.7-5.25v4.87c0,.31-.13.43-.45.43h-.71c-.3,0-.43-.13-.43-.45V26.49c0-.3.13-.43.45-.43h.71c.3,0,.43.13.43.45m-4.64,0v4.87c0,.31-.13.43-.45.43h-.81c-.3,0-.43-.13-.43-.45V26.49c0-.3.13-.43.45-.43h.81c.3,0,.43.13.43.45m-4.74,0v4.87c0,.31-.13.43-.45.43h-.81c-.3,0-.43-.13-.43-.45V26.59a2.29,2.29,0,0,1,0-.51,11.44,11.44,0,0,1,1.22,0c.31,0,.44.13.44.45"/><path class="cls-1" d="M98.07,21.91a16.09,16.09,0,0,0,.66-3.82.7.7,0,0,1,.66-.7h2.7c.3,0,.43.12.43.43a7.52,7.52,0,0,1-.1,1.2,2.37,2.37,0,0,1-.68,1.82,1.76,1.76,0,0,1-1.47.21,1,1,0,0,0-.89,0,.57.57,0,0,0-.22.46.18.18,0,0,0,.05.13,3.43,3.43,0,0,0,.87.52,2,2,0,0,1,.84,1.32.51.51,0,0,0,.19.35A1.21,1.21,0,0,0,102,24a3.61,3.61,0,0,0,2.41-1.5,8.88,8.88,0,0,0,1.08-3.92,2.19,2.19,0,0,1,.22-.86.65.65,0,0,0,.36-.55.17.17,0,0,0,0-.06,3.28,3.28,0,0,0-1.63-1.36,1.44,1.44,0,0,0-1.66.19,1.26,1.26,0,0,1-1,.42H99.34c-.44,0-.5-.19-.5-.4l0-1.71c0-.52.27-.59.48-.59H106a.5.5,0,0,1,.56.45,15,15,0,0,0,1.92,5.52.85.85,0,0,1-.17,1.23,17.27,17.27,0,0,1-4.25,2.82c-.77.36-.86.49-.88.6a.18.18,0,0,0,0,.14c.09.12.27.17,1,.09a15,15,0,0,0,5.47-2.15c.62-.41.95-.2,1.15,0a10.69,10.69,0,0,0,4.43,2.46,2.41,2.41,0,0,0,2.11-.27l0,0c.57-.72.43-1.51-.37-2.33a1.79,1.79,0,0,1-.19-1.35,6.67,6.67,0,0,1,.12-1,7,7,0,0,0,.1-1.19.18.18,0,0,0-.07-.14.57.57,0,0,0-.54-.13.67.67,0,0,0-.36.54,18.43,18.43,0,0,1-.81,1.82c-.39.4-.75.55-1,.45a9.29,9.29,0,0,1-1.08-.64,1,1,0,0,1-.44-.59.46.46,0,0,1,.13-.35c.64-.76,1.22-1.5,1.73-2.21s.68-.77.82-.79c.3-.11.45-.21.51-.35a.18.18,0,0,0,0-.07c0-.44-.49-.82-1.47-1.19a8.56,8.56,0,0,0-1-.39,1,1,0,0,0-1.32.67,13.06,13.06,0,0,1-1,2.24c-.23.37-.36.4-.39.4h0s-.09-.05-.14-.14a11.64,11.64,0,0,1-1.19-3.53.69.69,0,0,1,0-.52s.07-.08.24-.08h6.81c.75,0,1-.09,1.06-.23l0,0c0-.16,0-.4-.52-1.07A7.05,7.05,0,0,0,115.5,11a1.34,1.34,0,0,0-1.65.32,5.5,5.5,0,0,0-.74,1,.71.71,0,0,1-.86.34h-2.68c-.21,0-.42-.06-.46-.5a6.43,6.43,0,0,1,0-1.11,1,1,0,0,1,.33-.83c.28-.28.4-.47.4-.63a.18.18,0,0,0,0-.06c0-.14-.21-.29-.92-.59a10.32,10.32,0,0,0-1.78-.39.86.86,0,0,0-.69.2.93.93,0,0,0-.25.71h0c0,.87.06,1.75.13,2.63a.65.65,0,0,1-.1.47.36.36,0,0,1-.28.09H99.39a2.18,2.18,0,0,1-.91-.16c-.57-.25-1.15-.48-1.74-.69a.81.81,0,0,0-.73.06.87.87,0,0,0-.28.74c0,3-.09,5.89-.33,8.56a12.36,12.36,0,0,1-.85,4c-.22.63-.29,1,0,1.06h.06l.08,0a6.64,6.64,0,0,0,3.42-4.27"/><path class="cls-1" d="M129.14,19.23c0,.32.31.48.93.48h4.21c.62,0,.93-.18.93-.53s-.72-.48-1-.48H130c-.75,0-.91.29-.91.53"/><path class="cls-1" d="M146.91,23.44a.7.7,0,0,0-.5-.1l.09-.09a.18.18,0,0,0,0-.21,6.78,6.78,0,0,0-3-2.66.17.17,0,0,0-.18,0,8.18,8.18,0,0,0-1.55,1.78h0a.62.62,0,0,1-.82.35h-10a7.24,7.24,0,0,0-1-.13.94.94,0,0,0-.81.2.64.64,0,0,0-.11.59c.15.38.54.55,1.18.49l.77-.15h14.3a1.93,1.93,0,0,0,.78,0,2.35,2.35,0,0,0-.52.7l-.39.52c-.51,1-1,.85-1.22.79H127.79a4.81,4.81,0,0,0-1-.1h0a1,1,0,0,0-.85.21.61.61,0,0,0-.09.58c.1.28.39.59,1.18.47l.78-.12H134a.34.34,0,0,1,.26.07.37.37,0,0,1,0,.3,9.06,9.06,0,0,1-1,2.15,1.42,1.42,0,0,1-1.14.75c-1.22,0-2.55,0-3.94-.13a.16.16,0,0,0-.14.05c-.1.1-.18.29-.07,1a12,12,0,0,0,.35,1.51,1,1,0,0,0,.66.9.53.53,0,0,0,.57-.39,1.93,1.93,0,0,1,1-.29c4.55-.57,8.87-1.27,12.83-2.1a.75.75,0,0,1,.88.42l.54,1.49a2,2,0,0,0,1.25,1l.24,0a2,2,0,0,0,1.2-.5,2.16,2.16,0,0,0,.39-2,4.05,4.05,0,0,0-1.53-2.06,7.48,7.48,0,0,0-3.09-1.34,2.82,2.82,0,0,0-1.51-.1.18.18,0,0,0-.11.09.46.46,0,0,0,0,.39.64.64,0,0,0,.43.32,2.49,2.49,0,0,1,.78.59c.32.38.29.5.28.5s0,0-.17,0c-2.59.25-5.32.4-8.1.45h0a2.5,2.5,0,0,1,.41-.37,13.94,13.94,0,0,0,2.17-2.2,1.43,1.43,0,0,1,1-.69h10.14c.63,0,.94-.09,1-.35s0-.29-.6-1.06a11,11,0,0,0-2.1-1.72"/><path class="cls-1" d="M149.16,13.56c-.51-.34-1-.65-1.5-.92a1.55,1.55,0,0,0-1.17-.44,1.61,1.61,0,0,0-1.06.73,1.62,1.62,0,0,1-1,.33H139.6c-.3,0-.43-.13-.43-.45v-.93c0-.3.13-.43.45-.43h7.05c.64.12,1.06,0,1.25-.37a.18.18,0,0,0,0-.15,7.76,7.76,0,0,0-2.17-2.22,1.2,1.2,0,0,0-.92-.51.86.86,0,0,0-.64.39q-.63.76-1.18,1.54c-.09.18-.28.4-.9.28H130l-1-.1a1,1,0,0,0-.82.21.62.62,0,0,0-.09.58c.1.28.39.59,1.18.47l.78-.12h5.52c.3,0,.43.13.43.45v.93c0,.3-.13.43-.45.43h-5.66l-.28,0c-.31,0-.7-.09-.77-.33a1.42,1.42,0,0,0-.27-.63.17.17,0,0,0-.09,0c-.21,0-.36.17-.63.9a3.89,3.89,0,0,1-1.94,2.12l0,0a1.83,1.83,0,0,0-.55,1.92A1.28,1.28,0,0,0,126,18a1.92,1.92,0,0,0,2.32-.43l0,0a5.5,5.5,0,0,0,.73-2.76c0-.21.06-.43.5-.48l.41,0h5.62c.3,0,.43.13.43.45v4.23a1.41,1.41,0,0,0,.76,1.71,3.36,3.36,0,0,0,.86.13,1.53,1.53,0,0,0,1.54-1,.18.18,0,0,0,0-.07v-5c0-.3.13-.43.45-.43h5.42a.41.41,0,0,1,.31.09.41.41,0,0,1,.07.3l-.17,1c-.19.57-.48.64-.69.64h-3.71c-.62,0-.93.18-.93.53s.32.5,1,.5h3.61a2.29,2.29,0,0,0,1.17-.22,26.07,26.07,0,0,0,2.55-1.58c.59-.48.82-.53.91-.52a.71.71,0,0,0,.75-.52c0-.33-.21-.62-.71-.89"/><path class="cls-1" d="M134.18,17c.62,0,.93-.18.93-.53s-.72-.48-1-.48h-3.81c-.75,0-.91.29-.91.53,0,.48.72.48,1,.48Z"/><path class="cls-1" d="M145,19.91c.62,0,.93-.18.93-.53s-.72-.48-1-.48h-4.21c-.75,0-.91.29-.91.53,0,.48.72.48,1,.48Z"/><path class="cls-1" d="M181.16,30.25a.18.18,0,0,0,0-.08c-.07-.08-.24-.2-1-.48a11.58,11.58,0,0,1-3-1.93c-.45-.45-.6-.83-.44-1.17a29.47,29.47,0,0,0,2.21-9.71c.05-.53.3-.6.51-.6h.38c.79,0,1-.13,1.09-.24a.18.18,0,0,0,0-.18,6,6,0,0,0-2-2.25,1.13,1.13,0,0,0-.95-.43,1.1,1.1,0,0,0-.75.69l-.68.83a1.2,1.2,0,0,1-.95.54H174c-.13,0-.22,0-.25-.07s0-.16,0-.3a37.31,37.31,0,0,0,1.32-4.26c.47-.26.69-.5.7-.77s-.14-.42-.44-.59l0,0a8.25,8.25,0,0,0-3-.33.18.18,0,0,0-.15.16c-.08,1.15-.2,2.31-.35,3.44a1.43,1.43,0,0,1-.08.34l-.07-.1c-.48-.76-.88-1.1-1.28-1.08a.64.64,0,0,0-.4.18.41.41,0,0,0,0-.26c0-.07,0-.16-.85-.81a6.93,6.93,0,0,0-1.3-.7,1.35,1.35,0,0,0-1.43.24,1.18,1.18,0,0,1-1,.41c-.55,0-.55-.24-.55-.35s0-.42.15-.5c.44-.21.63-.45.53-.75a1,1,0,0,0-.95-.54,8.39,8.39,0,0,0-1.77-.26.84.84,0,0,0-.67.19.94.94,0,0,0-.25.71V10.3c0,.21-.07.43-.63.43a2,2,0,0,1-.93-.13,9.42,9.42,0,0,0-1.75-.72.71.71,0,0,0-1,.78v2.09a.43.43,0,0,1-.1.32.47.47,0,0,1-.35.08,1.05,1.05,0,0,1-.37,0,.81.81,0,0,0-.72.2.57.57,0,0,0-.09.53c.09.31.36.65,1.11.53a.6.6,0,0,1,.43.11.39.39,0,0,1,.1.3v1.87a1.17,1.17,0,0,0,.13,1.05.77.77,0,0,0,.15.14l-.12.07a.83.83,0,0,0-.26.69v3.92a1.26,1.26,0,0,0,.16,1.16,1.31,1.31,0,0,0,1.18.29c.91,0,1.44-.38,1.55-1,0-.06,0-.24.51-.24h5c.38,0,.43.16.43.33a1,1,0,0,0,.3.8.92.92,0,0,0,.73.18c.12,0,.16.05.17.07s0,.1-.09.24l0,0a.6.6,0,0,1-.87.46h-2.85a.92.92,0,0,1-.25,0v0a.83.83,0,0,1,.41-.27c.32-.14.49-.31.52-.5a.53.53,0,0,0-.22-.48,2.82,2.82,0,0,0-1.28-.44l-.89-.21c-.56,0-1,.31-1.29,1l-.09.23c-.24.45-.52.66-.86.66a14,14,0,0,1-3-.13c-.74-.05-.91,0-1,.15a.18.18,0,0,0,0,.12l.13.6c.11.36.5.5,1.16.4a11.68,11.68,0,0,1,2.46-.12c.12,0,.16,0,.16,0s0,.09-.14.39a19.28,19.28,0,0,1-1.77,2.94,1.21,1.21,0,0,0-.38,1,1,1,0,0,0,.62.65,1.88,1.88,0,0,0,2.46-.65c.36-.59.67-.56.88-.48l.34.12c.17.08.26.16.27.24s0,.18-.32.42a16.06,16.06,0,0,1-5,2.24l-.07,0a.24.24,0,0,0-.08.26c.05.15.22.24,1,.28a13.78,13.78,0,0,0,6.06-1.89,1.05,1.05,0,0,1,1.18-.08,12,12,0,0,1,1.21.89c.71.66,1.3.92,1.81.79s.8-.55,1-1.33c.09-1.08-.57-1.87-2-2.35-.2-.06-.32-.15-.35-.23s0-.22.15-.37A8.25,8.25,0,0,0,168,26.5c.16-.43.39-.64.72-.64h1.34c.71,0,.89,0,1-.1a.18.18,0,0,0,.06-.06.73.73,0,0,0-.11-.9,10.85,10.85,0,0,0-1.16-1.36,1.32,1.32,0,0,1-.45-1c0-.69,0-1.37,0-2a.77.77,0,0,1,.2-.14l.17-.08c-.19.5-.16.62-.11.71l.06.06c.18.11.39,0,1.19-.95l.41-.51a1.71,1.71,0,0,1,.26-.29.35.35,0,0,1,.05.14,41.83,41.83,0,0,0,1.6,7.12,1.41,1.41,0,0,1,0,1.22,14,14,0,0,1-4.16,4.7c-.15.08-.61.31-.58.68a.18.18,0,0,0,0,.07c.11.18.37.18,1,0a9.59,9.59,0,0,0,4.63-2.85c.31-.34.49-.37.57-.36s.11,0,.21.18a10.35,10.35,0,0,0,3,3.23.18.18,0,0,0,.1,0h0c.12,0,.25-.12.74-1.06a4.09,4.09,0,0,1,1.46-1.42c.68-.26.9-.43.87-.65m-5.27-13.5h0a33.16,33.16,0,0,1-1.18,7.34.62.62,0,0,1-.13.26s-.09,0-.22-.26a21.88,21.88,0,0,1-1.83-5.73v0c-.17-.35,0-.81.4-1.37.25-.45.54-.67.88-.67h1.74a.37.37,0,0,1,.28.09.54.54,0,0,1,.08.38m-11,3.39c0-.3.13-.43.45-.43H166c.21,0,.43.06.43.53v1c0,.3-.13.43-.45.43h-.63c-.31,0-.43-.13-.43-.45Zm1.41-7.31c0,.3-.13.43-.45.43h-.53c-.31,0-.43-.13-.43-.45v-.63c0-.21.08-.43.63-.43l.76,0a3.47,3.47,0,0,1,0,.53Zm-1.41,1.87c0-.3.13-.43.45-.43h.55c.21,0,.4.06.4.48v.68c0,.3-.13.43-.45.43h-.53c-.31,0-.43-.13-.43-.45Zm4.83-2.43-.2.25a2.5,2.5,0,0,1-.3.31.39.39,0,0,1,.24-.52,1.7,1.7,0,0,0,.36-.22l-.09.17m-.44,6.5a6.89,6.89,0,0,0-1.3-.7,1.79,1.79,0,0,0-.56-.1,1.2,1.2,0,0,0-.85.34,1.54,1.54,0,0,1-1.11.41c-.49,0-.55-.23-.55-.45v-.93c0-.3.13-.43.45-.43h.5c.42,0,.48.09.48.09h0c.15.75.58.89.88.87a1.82,1.82,0,0,0,2-.79.18.18,0,0,0,0-.09l0-2.27c0-.3.13-.43.45-.43h1.41a.4.4,0,0,1,.3.09.4.4,0,0,1,.05.31,20.87,20.87,0,0,1-1.38,4.77,5.61,5.61,0,0,0-.8-.68M162,15.42c0,.3-.13.43-.45.43H161c-.3,0-.43-.13-.43-.45v-.7c0-.3.13-.43.45-.43h.53c.21,0,.4.06.4.48Zm0-2.6c0,.3-.13.43-.45.43H161c-.3,0-.43-.13-.43-.45v-.53a.19.19,0,0,0,0,0c0-.15-.07-.34,0-.44a.48.48,0,0,1,.36-.1,2.4,2.4,0,0,1,.45.05c.49,0,.55.24.55.48Zm-1.44,4.25c0-.16.3-.19.51-.19h.5c.3,0,.43.13.43.45v.93c0,.13,0,.43-.68.43a2,2,0,0,1-1-.13,12.83,12.83,0,0,0-1.19-.52c.79-.09,1.27-.42,1.41-1m0,3.16a1.71,1.71,0,0,1,0-.5,6.17,6.17,0,0,1,.84,0c.53,0,.6.24.6.48v1.08c0,.3-.13.43-.45.43h-.61c-.3,0-.43-.13-.43-.45ZM165,26.29a9.63,9.63,0,0,1-.89,1.87.8.8,0,0,1-.87.35l-1-.1c-.12,0-.26-.05-.3-.14s0-.26.13-.49l.65-1.26c.24-.45.52-.66.85-.66h1.13a.31.31,0,0,1,.23.07.46.46,0,0,1,0,.36"/><path class="cls-1" d="M198.29,28.12a1.6,1.6,0,0,0,.91,1,1,1,0,0,0,.31,0,1.82,1.82,0,0,0,1-.35l0,0a3.59,3.59,0,0,0,.85-2.89,23.4,23.4,0,0,0-3.51-8.09c-.59-.88-.75-.93-.89-.92a.22.22,0,0,0-.18.15.17.17,0,0,0,0,.09,5.09,5.09,0,0,0,.26,1,22.37,22.37,0,0,1,1.2,8.84,2.22,2.22,0,0,0,0,1.1"/><path class="cls-1" d="M194.72,14.56a.18.18,0,0,0,0,.12l.13.59c.09.31.37.47.84.47l.32,0,.8-.15h12.84c.76,0,1-.11,1-.21l0-.06c0-.13,0-.3-.57-1.08A10.14,10.14,0,0,0,208.74,13c-.45-.45-.82-.65-1.16-.61a.76.76,0,0,0-.56.37c-.29.34-.56.68-.79,1a4.24,4.24,0,0,1-.66.8,4.34,4.34,0,0,1-.84,0c-.56,0-.63-.23-.63-.45v-2.9a3.29,3.29,0,0,1,0-.56,1,1,0,0,0,.63-.47.64.64,0,0,0,0-.55.17.17,0,0,0-.06-.07,6.08,6.08,0,0,0-2.84-.63.87.87,0,0,0-.68.22,1,1,0,0,0-.23.74v4.26c0,.3-.13.43-.45.43h-3.73a8.71,8.71,0,0,0-1-.13c-.75-.07-.91,0-1,.12"/><path class="cls-1" d="M194,17.13c-.06-.25-.33-.43-.8-.55a.48.48,0,0,1-.23-.73q1-2,1.88-4.05c.12-.61.41-.94.88-1h0a1,1,0,0,0,.43-.28l0-.05a.66.66,0,0,0,0-.55,1.15,1.15,0,0,0-.77-.5,8.11,8.11,0,0,0-2.28-.77.91.91,0,0,0-1.13.8h0A25.43,25.43,0,0,1,187.62,21c-.59.78-.6.93-.55,1.06l0,.06c.13.13.34.11,1.12-.36a16.91,16.91,0,0,0,1.68-1.53,1.27,1.27,0,0,1,.32-.26.59.59,0,0,1,0,.11V31.51a3.82,3.82,0,0,0,.07,1,1.18,1.18,0,0,0,1.17.81,2.77,2.77,0,0,0,.44,0,1.43,1.43,0,0,0,1.47-1.1.18.18,0,0,0,0-.05V18.65a1.19,1.19,0,0,1,.35-.88.67.67,0,0,0,.28-.64"/><path class="cls-1" d="M211.53,30.87a9,9,0,0,0-3-2.6l-.06,0c-.15,0-.36,0-1.1.93l-.39.52a2,2,0,0,1-.63.75,18.59,18.59,0,0,1-1.9,0c-.16,0-.19,0-.19,0s0-.07.11-.3a17.75,17.75,0,0,0,1.53-2.93,45.55,45.55,0,0,0,2.46-7.92c.15-.66.29-.75.32-.76.32-.13.49-.29.52-.49s-.09-.39-.39-.61a12,12,0,0,0-2.65-.59.9.9,0,0,0-.72.18.93.93,0,0,0-.26.72,62.4,62.4,0,0,1-1.76,12.11c-.17.57-.46.63-.66.63H196a7,7,0,0,0-1-.13.94.94,0,0,0-.82.21.61.61,0,0,0-.09.58c.11.34.42.51.93.51h.25l.77-.15h14.34c.89.17,1.16-.17,1.24-.48a.18.18,0,0,0,0-.15"/><path class="cls-1" d="M230.73,12.47a3.6,3.6,0,0,1,1.09,1.92,2.3,2.3,0,0,0,.94,1.72,1.35,1.35,0,0,0,.67.17,2.38,2.38,0,0,0,.87-.19l0,0a1.87,1.87,0,0,0,.83-1.61c-.05-1.14-.82-2-2.28-2.65a6,6,0,0,0-1.91-.47c-.66,0-.94.06-1,.28a.17.17,0,0,0,0,.08c0,.11.09.26.76.78"/><path class="cls-1" d="M232.34,18.29a9.11,9.11,0,0,0-1.76-.59c-.29-.06-1-.18-1,.21a.18.18,0,0,0,0,0c0,.11.06.26.79,1a4.2,4.2,0,0,1,.77,1.75,2.61,2.61,0,0,0,.83,2,1.49,1.49,0,0,0,.89.26,2.65,2.65,0,0,0,.67-.1l0,0a1.58,1.58,0,0,0,.84-1.21c.34-1.26-.34-2.38-2-3.33"/><path class="cls-1" d="M227.65,24.62l0,0a1.66,1.66,0,0,0,1.36.25,1.64,1.64,0,0,0,.91-1c.32-1.08-.14-2.15-1.37-3.19a8.72,8.72,0,0,0-1.81-1.06c-.43-.16-.64-.39-.64-.72v-1c0-.31.13-.43.45-.43h2.47c.77,0,.95-.11,1-.24s.05-.35-.37-1.13a6.75,6.75,0,0,0-1.64-1.63l-.06,0a.64.64,0,0,0-.73.39c-.25.34-.48.67-.68,1a1.19,1.19,0,0,1-.44.6,2.75,2.75,0,0,1,0-.47V12.42a.65.65,0,0,1,.48-.66,7.78,7.78,0,0,1,2.31-.5.64.64,0,0,0,.78-.44.18.18,0,0,0,0-.06,1.08,1.08,0,0,0-.66-.93,11.78,11.78,0,0,0-2-1.14c-.24-.2-.65-.29-1.22.35a22.6,22.6,0,0,1-6,3.06c-.65.15-1,.34-1.17.59a.17.17,0,0,0,0,.12.47.47,0,0,0,.23.32l.1,0a19.26,19.26,0,0,0,3.43-.43.61.61,0,0,1,.47,0A.33.33,0,0,1,223,13v3c0,.3-.13.43-.46.43a12.91,12.91,0,0,1-2.86-.13,1,1,0,0,0-.82.22.55.55,0,0,0-.09.5c.06.27.3.59,1.06.54a13.21,13.21,0,0,1,2.59-.12.4.4,0,0,1,.29.09.42.42,0,0,1,0,.31,34,34,0,0,1-3.49,9.65c-.33.77-.32,1-.16,1.15s.41.05,1.28-.55A8.71,8.71,0,0,0,223,24v7.6a1.76,1.76,0,0,0,.41,1.48,1.34,1.34,0,0,0,.93.31,2.56,2.56,0,0,0,.42,0,1.32,1.32,0,0,0,1.41-1.08V21.15s0,0,0-.07a1.57,1.57,0,0,1,.25.25,5.78,5.78,0,0,1,.64,1.94,2.06,2.06,0,0,0,.63,1.35"/><path class="cls-1" d="M241.83,21.54a9.76,9.76,0,0,0-1.5-.6.94.94,0,0,0-.79-.13,1.09,1.09,0,0,0-.61.69l-.12.16a1.65,1.65,0,0,1,0-.21V11.31a2.19,2.19,0,0,1,0-.59,1.28,1.28,0,0,0,.79-.6.19.19,0,0,0,0-.06.85.85,0,0,0-.22-.66A1.48,1.48,0,0,0,238.33,9h0a15.35,15.35,0,0,0-1.74-.25.83.83,0,0,0-.66.2,1,1,0,0,0-.23.74V23c0,.2-.06.45-.52.56-3.65.9-6.28,1.49-7.83,1.74-.38.07-.61.2-.69.4a.53.53,0,0,0,.1.51c.24.32.68.36,1.31.11a30.93,30.93,0,0,1,3.31-.85l3.78-.86a.6.6,0,0,1,.46,0,.31.31,0,0,1,.08.25v6.85a1.64,1.64,0,0,0,.43,1.44,1.41,1.41,0,0,0,.94.3,3.7,3.7,0,0,0,.86-.12l0,0a1.47,1.47,0,0,0,.85-1.77V24.3c0-.2.07-.49.67-.66L242,23c.73,0,.92-.33.95-.58a.16.16,0,0,0,0,0c0-.14-.12-.34-1.08-.87"/><path class="cls-1" d="M272.87,29.82A16.1,16.1,0,0,1,268.08,28c-.16-.09-.36-.23-.39-.4a.5.5,0,0,1,.18-.39,14.21,14.21,0,0,0,3.19-5.48.78.78,0,0,1,.68-.58.75.75,0,0,0,.51-.51c.05-.25-.07-.52-.39-.85A10.13,10.13,0,0,0,270,18.65a1.17,1.17,0,0,0-.9-.23,1.35,1.35,0,0,0-.82.64,1.69,1.69,0,0,1-1.18.42c-.51,0-.58-.23-.58-.45V15.2c0-.31.13-.43.45-.43h5.37c.62.09,1,0,1.21-.34a.18.18,0,0,0,0-.16,5.81,5.81,0,0,0-2-2.17.93.93,0,0,0-1.7.29l-.68.83a1.24,1.24,0,0,1-1,.52H267c-.3,0-.43-.13-.43-.45v-2.6a.73.73,0,0,1,.3-.69.89.89,0,0,0,.46-.57.44.44,0,0,0-.12-.35l0,0a6.56,6.56,0,0,0-2.88-.63.8.8,0,0,0-.6.2,1.09,1.09,0,0,0-.27.81V13.3c0,.3-.13.43-.45.43h-3.35a1.28,1.28,0,0,1-.92-.36c-.41-.37-.59-.43-.7-.45a.17.17,0,0,0-.11,0c-.09,0-.26.19-.78.88-.45.86-.73,1-.86.93s-.07-.07-.07-.46V10.63c0-.22,0-.5.21-.58.33-.18.51-.37.54-.58a.52.52,0,0,0-.14-.44l0,0a7,7,0,0,0-2.78-.58.83.83,0,0,0-.64.21,1.1,1.1,0,0,0-.27.82v4.87c0,.3-.13.43-.46.43a10,10,0,0,1-2-.1,1,1,0,0,0-.83.23.61.61,0,0,0-.1.55c.07.27.34.58,1.16.48a7.16,7.16,0,0,1,1.81-.12c.3,0,.43.13.43.45v3.66a.62.62,0,0,1-.48.64c-.65.2-1.28.37-1.88.5a1.19,1.19,0,0,0-.79.47,1,1,0,0,0-.1.76,20.76,20.76,0,0,0,.81,2.37l0,.06c.36.38.63.52.87.45s.35-.49.37-.62a1.33,1.33,0,0,1,.65-.83c.37-.25.48-.21.47-.21s0,0,0,.16v5.65a4,4,0,0,1,0,.66,2.57,2.57,0,0,1-1.87.24c-.66,0-1,0-1.1.25a.18.18,0,0,0,0,.08c0,.16.13.33.84.69A2.36,2.36,0,0,1,252,32.33c.19.86.71,1,1.15,1h.05A3.17,3.17,0,0,0,256.14,31a.17.17,0,0,0,0,0V21.58a1.27,1.27,0,0,1,.54-1q1.16-.94,2.38-1.85c.61-.59.77-.85.62-1a.18.18,0,0,0-.07-.05c-.11,0-.28,0-1.2.43a19.12,19.12,0,0,0-1.75.89c-.36.2-.46.15-.47.14s0-.07,0-.19V16.2c0-.3.13-.43.45-.43h2.27c.72,0,.92-.08,1-.17l0,0a.63.63,0,0,0-.09-.78,1.35,1.35,0,0,1,.29,0H263c.3,0,.43.13.43.45v3.83c0,.3-.13.43-.45.43h-2.62a6,6,0,0,0-1.06-.1h0a.87.87,0,0,0-.76.24.57.57,0,0,0-.07.53c.1.28.38.59,1.15.49a1.55,1.55,0,0,1,.46-.07c.54,0,.63.22.65.44a24.87,24.87,0,0,0,2.58,6.52.65.65,0,0,1-.08,1,20.63,20.63,0,0,1-6.48,3.85c-.76.33-.86.45-.9.55a.18.18,0,0,0,0,.19c.1.1.28.18,1,.13a19,19,0,0,0,7.64-3.11c.25-.17.66-.33,1.3.27A18.85,18.85,0,0,0,269.9,33c.79.29,1,.28,1.12.16a.17.17,0,0,0,0-.07A3.75,3.75,0,0,1,273,31c.84-.35.94-.5,1-.61a.16.16,0,0,0,0-.06c0-.2-.18-.33-1.13-.48m-5-8.84a13.09,13.09,0,0,1-2.11,4.6.68.68,0,0,1-.44.31.65.65,0,0,1-.48-.21A12.85,12.85,0,0,1,261.81,21c-.1-.31-.06-.42,0-.46a.29.29,0,0,1,.22-.07h5.6a.34.34,0,0,1,.27.08.49.49,0,0,1,0,.38"/><path class="cls-2" d="M96.06,47.26a2,2,0,0,0,1.19.43,1,1,0,0,0,1.1-1c0-.59-.17-1-1.57-1.88-.9-.57-2.13-1.25-2.13-3a2.68,2.68,0,0,1,2.91-2.73,15.76,15.76,0,0,1,2.41.28,17.28,17.28,0,0,0-.23,2.29.9.9,0,0,1-.65,0,2.52,2.52,0,0,0-.62-1.53,1.33,1.33,0,0,0-1-.34,1.09,1.09,0,0,0-1.07,1.16,1.49,1.49,0,0,0,.86,1.32l1.55,1a2.56,2.56,0,0,1,1.43,2.38c0,1.53-1.14,2.88-3.29,2.88a4.81,4.81,0,0,1-2.2-.51,9.79,9.79,0,0,1-.52-2.51,1,1,0,0,1,.65-.24,4.55,4.55,0,0,0,1.16,2"/><path class="cls-2" d="M101.61,39.28c.34,0,.77,0,2,0s1.8,0,2.09,0a1.17,1.17,0,0,1,0,.71,3.09,3.09,0,0,0-.69.15c-.26.12-.3.34-.3.69,0,.62,0,1.35,0,2.17a.28.28,0,0,0,.07.12,39.87,39.87,0,0,0,3,0s.09-.06.09-.09c0-.72,0-1.48,0-2.32,0-.19-.05-.46-.24-.53a2.63,2.63,0,0,0-.86-.19,1,1,0,0,1,0-.71c.67,0,1,0,2.1,0s1.55,0,2,0a.93.93,0,0,1,0,.71,2.12,2.12,0,0,0-.73.18c-.25.1-.29.29-.3.76,0,1,0,1.68,0,2.9,0,1,0,2.19,0,2.85,0,.26.05.56.29.68a4.08,4.08,0,0,0,.93.22,1.4,1.4,0,0,1-.08.71c-.3,0-1,0-2.14,0s-1.83,0-2.09,0a.93.93,0,0,1,0-.71,4.15,4.15,0,0,0,.75-.16c.2-.07.29-.28.3-.6,0-.71,0-1.48,0-2.44,0,0,0-.09-.07-.09-.25,0-.91,0-1.51,0a7.7,7.7,0,0,0-1.6,0,.23.23,0,0,0,0,.09c0,.94,0,1.7,0,2.23,0,.35,0,.62.34.74a5.7,5.7,0,0,0,.83.21,1.06,1.06,0,0,1-.07.71c-.24,0-.87,0-2.29,0-1.1,0-1.77,0-2,0a1.17,1.17,0,0,1,0-.71,6.07,6.07,0,0,0,.66-.16c.36-.1.45-.35.48-.87,0-.22,0-1.59,0-2.91s0-2.31,0-2.75-.05-.65-.33-.74a4,4,0,0,0-.77-.16,1.28,1.28,0,0,1,0-.71"/><path class="cls-2" d="M112.4,39.28c.65,0,1.48,0,2.13,0h2.87a12.29,12.29,0,0,0,1.81-.1s.05,0,.07.07a21.35,21.35,0,0,0-.17,2.31,1.19,1.19,0,0,1-.71.06,4.34,4.34,0,0,0-.21-1,.63.63,0,0,0-.58-.43c-.42,0-1.69,0-1.89,0s-.13.21-.13.28c0,.93,0,1.57,0,2.57a.12.12,0,0,0,.11.12c.34,0,1.11,0,1.56,0,.24,0,.33-.12.4-.41s.08-.41.12-.62a1.44,1.44,0,0,1,.78.06c0,.34-.08,1.07-.08,1.5s0,1.21,0,1.56a1.2,1.2,0,0,1-.75,0l-.15-.65a.42.42,0,0,0-.4-.34c-.24,0-1.11,0-1.51,0,0,0-.11.1-.11.13v2.22a.5.5,0,0,0,.29.48,9,9,0,0,0,1.84.13.94.94,0,0,0,1-.51,6.91,6.91,0,0,0,.66-1.25,1.45,1.45,0,0,1,.7.29,12.93,12.93,0,0,1-.67,2.22c0,.09-.11.25-.68.25-1,0-2.33-.06-4-.06-.71,0-1.83,0-2.55,0a2.11,2.11,0,0,1,0-.71,7.08,7.08,0,0,0,1.06-.21c.21-.06.38-.21.38-.65,0-.87,0-1.45,0-3.31,0-1,0-2.15,0-2.69s-.17-.51-.38-.59a3.65,3.65,0,0,0-.78-.15,1.27,1.27,0,0,1,0-.71"/><path class="cls-2" d="M120.92,39.28c.45,0,1,0,2,0,.44,0,.94,0,1.2,0a4,4,0,0,0,.53.88c1.11,1.53,2.86,4,3.68,5l.08,0c0-1.88,0-3-.08-4.16,0-.49-.16-.75-.61-.85a8.74,8.74,0,0,0-.86-.16,1.6,1.6,0,0,1,0-.71c.29,0,.89,0,1.89,0s1.46,0,1.77,0a1.59,1.59,0,0,1,0,.71,3.73,3.73,0,0,0-.53.13c-.36.12-.56.19-.62.93-.08,1.16-.12,3.28-.11,5.22,0,.68,0,1.51,0,2.09a9.71,9.71,0,0,0-1.47,0c-1-1.44-3.41-5-4.59-6.6-.05-.06-.08,0-.08,0,0,1.62,0,4,0,4.62s.25.9.61,1,.46.1.83.18a1.18,1.18,0,0,1,0,.71c-.61,0-1.23,0-1.84,0s-1.32,0-1.89,0a1.59,1.59,0,0,1,0-.71,4.09,4.09,0,0,0,.83-.22.9.9,0,0,0,.45-.85c.08-.81.12-3.78.12-5.34a.93.93,0,0,0-.45-.9,3,3,0,0,0-.91-.25,2,2,0,0,1,0-.74"/><path class="cls-2" d="M139.77,47.94a11.33,11.33,0,0,1-3.14.56c-3.07,0-4.91-1.59-4.91-4.75a4.34,4.34,0,0,1,2.43-4.13,6,6,0,0,1,2.74-.56,26.16,26.16,0,0,1,2.87.34,17.07,17.07,0,0,0-.22,2.82.92.92,0,0,1-.73.07c-.13-1-.3-1.56-.66-1.87a2.62,2.62,0,0,0-1.71-.57c-1.3,0-2.38.82-2.38,3.64,0,2.31,1.07,4.17,2.82,4.17a.84.84,0,0,0,.54-.24,1.28,1.28,0,0,0,.11-.43,8.72,8.72,0,0,0,0-1.19c0-.37,0-.71-.42-.85s-.54-.09-1-.19a1.52,1.52,0,0,1,0-.74c.36,0,1.35,0,2.42,0s1.51,0,1.83,0a1.72,1.72,0,0,1,0,.74,4.51,4.51,0,0,0-.5.12c-.21.07-.3.22-.3.57s0,1.57,0,1.65.09.19.32.4a1.12,1.12,0,0,1-.12.43"/><path class="cls-2" d="M143.92,39.28c.48,0,1.15,0,1.87,0,.9,0,1.94,0,2.2,0a1.16,1.16,0,0,1,0,.71,2.76,2.76,0,0,0-.37.09c-.23.06-.15.26-.07.47.2.53,1,2.43,1.26,2.81,0,0,.08,0,.11,0a19.42,19.42,0,0,0,1.26-2.79c0-.21,0-.35-.29-.43s-.48-.1-.77-.15a1.67,1.67,0,0,1,.07-.71c.5,0,.93,0,1.79,0s1.19,0,1.69,0a1.29,1.29,0,0,1,0,.71c-.29.07-.58.1-.71.16-.4.16-.56.28-1,1-.52.9-1.3,2.45-1.59,3.1a1.36,1.36,0,0,0-.16.72c0,.71,0,.85,0,1.6,0,.44,0,.79.44.88.23.06.52.1.83.18a1.37,1.37,0,0,1-.07.69c-.38,0-1.56-.06-2.36-.06-1.06,0-1.4.06-2.14.06a1.22,1.22,0,0,1,0-.69,7.5,7.5,0,0,0,.91-.18c.33-.1.4-.38.4-.79,0-.69,0-.9,0-1.54a2.44,2.44,0,0,0-.2-.78c-.24-.6-1-2.17-1.48-3.13-.37-.75-.61-1-.93-1.06a3.91,3.91,0,0,0-.79-.15,1.33,1.33,0,0,1,0-.69"/><path class="cls-2" d="M152.83,39.28c.67,0,1.55,0,2.22,0s1.5,0,2.21,0a1.29,1.29,0,0,1,0,.71c-.25,0-.54.13-.69.16-.36.09-.44.37-.45.84,0,1.07,0,1.7,0,2.5,0,.4,0,1.43.08,2a1.82,1.82,0,0,0,2.06,1.73c.85,0,1.88-.24,2-2.38.05-1.12.07-3.26,0-3.75s-.09-.79-.54-.9a6.39,6.39,0,0,0-1-.19,1.81,1.81,0,0,1,0-.71c.62,0,1.24,0,1.87,0,1.23,0,1.51,0,1.79,0a1.07,1.07,0,0,1,0,.71c-.21.06-.41.07-.64.15s-.44.32-.48,1.06c0,.47-.08,2.28-.12,3.28-.12,3.13-1.6,4-3.67,4-2.5,0-3.29-1.4-3.4-2.87-.08-1.1-.08-3.76-.09-4.72a.71.71,0,0,0-.42-.74,4.29,4.29,0,0,0-.81-.19,1.59,1.59,0,0,1,0-.71"/><path class="cls-2" d="M163.14,39.28c.45,0,1,0,2,0,.44,0,.94,0,1.2,0a4,4,0,0,0,.53.88c1.11,1.53,2.86,4,3.68,5l.08,0c0-1.88,0-3-.08-4.16,0-.49-.16-.75-.61-.85a8.73,8.73,0,0,0-.86-.16,1.59,1.59,0,0,1,0-.71c.29,0,.89,0,1.89,0s1.46,0,1.77,0a1.61,1.61,0,0,1,0,.71,3.76,3.76,0,0,0-.53.13c-.36.12-.56.19-.62.93-.08,1.16-.12,3.28-.11,5.22,0,.68,0,1.51,0,2.09a9.7,9.7,0,0,0-1.47,0c-1-1.44-3.41-5-4.59-6.6-.05-.06-.08,0-.08,0,0,1.62,0,4,0,4.62s.25.9.61,1,.46.1.83.18a1.18,1.18,0,0,1,0,.71c-.61,0-1.23,0-1.84,0s-1.32,0-1.89,0a1.61,1.61,0,0,1,0-.71,4.09,4.09,0,0,0,.83-.22.9.9,0,0,0,.45-.85c.08-.81.12-3.78.12-5.34a.93.93,0,0,0-.45-.9,3,3,0,0,0-.91-.25,2,2,0,0,1,0-.74"/><path class="cls-2" d="M182.93,48.28c-.56,0-1.38,0-2.4,0s-2,0-2.45,0a.87.87,0,0,1,0-.71c.4-.06.74-.12.9-.16.4-.1.49-.26.53-.82.07-1.54.05-3.78.05-6.13,0,0,0-.13-.08-.13a10.4,10.4,0,0,0-1.18,0c-.21,0-.41.09-.62.57a11.55,11.55,0,0,0-.45,1.25c-.07.07-.65-.06-.7-.21.11-.62.26-1.88.32-2.67,0,0,.12-.13.16-.12a3.83,3.83,0,0,0,1.27.19h4.63a5.84,5.84,0,0,0,1.67-.16c.05,0,.09.12.09.15a18.81,18.81,0,0,0-.34,2.72,1.17,1.17,0,0,1-.7,0,7.77,7.77,0,0,0-.25-1.34c-.09-.34-.24-.43-.46-.46a9.57,9.57,0,0,0-1.28,0,.18.18,0,0,0-.07.13c0,2.13,0,5.5,0,6.31,0,.15,0,.5.3.65a6.47,6.47,0,0,0,1.09.22,1.09,1.09,0,0,1,0,.71"/><path class="cls-2" d="M185.85,39.28c.65,0,1.48,0,2.13,0h2.87a12.28,12.28,0,0,0,1.81-.1s.05,0,.07.07a21.21,21.21,0,0,0-.17,2.31,1.19,1.19,0,0,1-.71.06,4.33,4.33,0,0,0-.21-1,.63.63,0,0,0-.58-.43c-.42,0-1.69,0-1.89,0s-.13.21-.13.28c0,.93,0,1.57,0,2.57a.12.12,0,0,0,.11.12c.34,0,1.11,0,1.56,0,.24,0,.33-.12.4-.41s.08-.41.12-.62a1.44,1.44,0,0,1,.78.06c0,.34-.08,1.07-.08,1.5s0,1.21,0,1.56a1.2,1.2,0,0,1-.75,0l-.15-.65a.42.42,0,0,0-.4-.34c-.24,0-1.11,0-1.51,0,0,0-.11.1-.11.13v2.22a.5.5,0,0,0,.29.48,9,9,0,0,0,1.84.13.94.94,0,0,0,1-.51,7,7,0,0,0,.66-1.25,1.46,1.46,0,0,1,.7.29A12.94,12.94,0,0,1,192.8,48c0,.09-.11.25-.67.25-1,0-2.33-.06-4-.06-.71,0-1.83,0-2.55,0a2.07,2.07,0,0,1,0-.71,7.11,7.11,0,0,0,1.06-.21c.21-.06.38-.21.38-.65,0-.87,0-1.45,0-3.31,0-1,0-2.15,0-2.69s-.17-.51-.38-.59a3.65,3.65,0,0,0-.78-.15,1.27,1.27,0,0,1,0-.71"/><path class="cls-2" d="M200.69,40.21a2.68,2.68,0,0,0-1.46-.37c-1.39,0-2.29,1.19-2.29,3.72,0,1.65.71,3.92,2.91,3.92a1.54,1.54,0,0,0,1.11-.4,6.82,6.82,0,0,0,1.11-1.51,1.13,1.13,0,0,1,.54.44,5.31,5.31,0,0,1-1.19,2.1,4.86,4.86,0,0,1-2,.38c-3,0-4.84-1.6-4.84-4.81a4.4,4.4,0,0,1,2.24-4,5.55,5.55,0,0,1,2.66-.6c1.27,0,2.29.25,2.79.26-.07.51-.17,1.76-.17,2.56-.07.12-.64.18-.66.07-.19-.94-.26-1.41-.79-1.75"/><path class="cls-2" d="M203.93,39.28c.34,0,.77,0,2,0s1.8,0,2.09,0a1.16,1.16,0,0,1,0,.71,3.07,3.07,0,0,0-.69.15c-.26.12-.3.34-.3.69,0,.62,0,1.35,0,2.17a.28.28,0,0,0,.07.12,39.89,39.89,0,0,0,3,0s.09-.06.09-.09c0-.72,0-1.48,0-2.32,0-.19-.05-.46-.24-.53a2.64,2.64,0,0,0-.86-.19,1,1,0,0,1,0-.71c.67,0,1,0,2.1,0s1.55,0,2,0a.93.93,0,0,1,0,.71,2.11,2.11,0,0,0-.73.18c-.25.1-.29.29-.3.76,0,1,0,1.68,0,2.9,0,1,0,2.19,0,2.85,0,.26.05.56.29.68a4.07,4.07,0,0,0,.93.22,1.4,1.4,0,0,1-.08.71c-.3,0-1,0-2.14,0s-1.83,0-2.09,0a.93.93,0,0,1,0-.71,4.16,4.16,0,0,0,.76-.16c.2-.07.29-.28.3-.6,0-.71,0-1.48,0-2.44,0,0,0-.09-.07-.09-.25,0-.91,0-1.51,0a7.68,7.68,0,0,0-1.6,0,.22.22,0,0,0,0,.09c0,.94,0,1.7,0,2.23,0,.35,0,.62.35.74a5.65,5.65,0,0,0,.83.21,1.06,1.06,0,0,1-.07.71c-.24,0-.87,0-2.29,0-1.1,0-1.77,0-2,0a1.16,1.16,0,0,1,0-.71,6.16,6.16,0,0,0,.66-.16c.36-.1.45-.35.48-.87,0-.22,0-1.59,0-2.91s0-2.31,0-2.75-.05-.65-.33-.74a4,4,0,0,0-.77-.16,1.28,1.28,0,0,1,0-.71"/><path class="cls-2" d="M214.54,39.28c.45,0,1,0,2,0,.44,0,.94,0,1.2,0a4,4,0,0,0,.53.88c1.11,1.53,2.86,4,3.68,5l.08,0c0-1.88,0-3-.08-4.16,0-.49-.16-.75-.61-.85a8.73,8.73,0,0,0-.86-.16,1.59,1.59,0,0,1,0-.71c.29,0,.89,0,1.89,0s1.46,0,1.77,0a1.61,1.61,0,0,1,0,.71,3.76,3.76,0,0,0-.53.13c-.36.12-.56.19-.62.93-.08,1.16-.12,3.28-.11,5.22,0,.68,0,1.51,0,2.09a9.7,9.7,0,0,0-1.47,0c-1-1.44-3.41-5-4.59-6.6-.05-.06-.08,0-.08,0,0,1.62,0,4,0,4.62s.25.9.61,1,.46.1.83.18a1.18,1.18,0,0,1,0,.71c-.61,0-1.23,0-1.84,0s-1.32,0-1.89,0a1.61,1.61,0,0,1,0-.71,4.09,4.09,0,0,0,.83-.22.9.9,0,0,0,.45-.85c.08-.81.12-3.78.12-5.34a.93.93,0,0,0-.45-.9,3,3,0,0,0-.91-.25,2,2,0,0,1,0-.74"/><path class="cls-2" d="M226.47,47.16a5.08,5.08,0,0,1-1.12-3.38,4.64,4.64,0,0,1,1.6-3.72,4.83,4.83,0,0,1,3-1c2.78,0,4.23,2.13,4.23,4.57a5.36,5.36,0,0,1-.82,3,4.34,4.34,0,0,1-3.59,1.87,4.09,4.09,0,0,1-3.31-1.34m4.63.06a4.51,4.51,0,0,0,.79-3.06,5.34,5.34,0,0,0-1.15-3.76,1.63,1.63,0,0,0-1.2-.5,1.51,1.51,0,0,0-.94.29c-.74.56-1,1.79-1,3.15a5.48,5.48,0,0,0,1.23,3.75,1.83,1.83,0,0,0,1.28.53,1.35,1.35,0,0,0,1-.4"/><path class="cls-2" d="M235.72,39.28c.67,0,1.11,0,2.18,0s1.5,0,2.08,0a1.28,1.28,0,0,1,0,.71,4.69,4.69,0,0,0-.7.15c-.3.1-.36.22-.37.59s0,.88,0,2.46,0,3.19,0,3.57a.56.56,0,0,0,.26.46,8.14,8.14,0,0,0,1.75.09c.25,0,.53-.16.75-.59s.6-1.25.81-1.76a1.08,1.08,0,0,1,.69.29,14,14,0,0,1-.89,2.87c0,.1-.17.21-.63.21-1.15,0-2.83-.07-3.93-.07-1.3,0-1.8,0-2.12,0a1.27,1.27,0,0,1,0-.71,6.43,6.43,0,0,0,.85-.15.55.55,0,0,0,.38-.56c0-.34,0-2.16,0-3,0-1.75,0-2.53,0-3.1,0-.31-.12-.51-.38-.59a6.61,6.61,0,0,0-.81-.15,1.13,1.13,0,0,1,.05-.71"/><path class="cls-2" d="M245.46,47.16a5.08,5.08,0,0,1-1.12-3.38,4.64,4.64,0,0,1,1.6-3.72,4.83,4.83,0,0,1,3-1c2.78,0,4.23,2.13,4.23,4.57a5.36,5.36,0,0,1-.82,3,4.34,4.34,0,0,1-3.59,1.87,4.09,4.09,0,0,1-3.31-1.34m4.63.06a4.51,4.51,0,0,0,.79-3.06,5.34,5.34,0,0,0-1.15-3.76,1.63,1.63,0,0,0-1.2-.5,1.51,1.51,0,0,0-.94.29c-.74.56-1,1.79-1,3.15a5.48,5.48,0,0,0,1.23,3.75,1.83,1.83,0,0,0,1.28.53,1.35,1.35,0,0,0,1-.4"/><path class="cls-2" d="M263.11,47.94a11.33,11.33,0,0,1-3.14.56c-3.07,0-4.91-1.59-4.91-4.75a4.34,4.34,0,0,1,2.43-4.13,6,6,0,0,1,2.74-.56,26.16,26.16,0,0,1,2.87.34,17.07,17.07,0,0,0-.22,2.82.92.92,0,0,1-.73.07c-.13-1-.3-1.56-.66-1.87a2.62,2.62,0,0,0-1.71-.57c-1.3,0-2.38.82-2.38,3.64,0,2.31,1.07,4.17,2.82,4.17a.84.84,0,0,0,.54-.24,1.28,1.28,0,0,0,.11-.43,8.72,8.72,0,0,0,0-1.19c0-.37,0-.71-.42-.85s-.54-.09-1-.19a1.52,1.52,0,0,1,0-.74c.36,0,1.35,0,2.42,0s1.51,0,1.83,0a1.72,1.72,0,0,1,0,.74,4.51,4.51,0,0,0-.5.12c-.21.07-.3.22-.3.57s0,1.57,0,1.65.09.19.32.4a1.12,1.12,0,0,1-.12.43"/><path class="cls-2" d="M264.28,39.28c.48,0,1.15,0,1.87,0,.9,0,1.94,0,2.2,0a1.17,1.17,0,0,1,0,.71,2.74,2.74,0,0,0-.37.09c-.23.06-.15.26-.07.47.2.53,1,2.43,1.26,2.81,0,0,.08,0,.11,0a19.42,19.42,0,0,0,1.26-2.79c0-.21,0-.35-.29-.43s-.48-.1-.77-.15a1.67,1.67,0,0,1,.07-.71c.5,0,.93,0,1.79,0s1.19,0,1.69,0a1.29,1.29,0,0,1,0,.71c-.29.07-.58.1-.71.16-.4.16-.56.28-1,1-.52.9-1.3,2.45-1.59,3.1a1.36,1.36,0,0,0-.16.72c0,.71,0,.85,0,1.6,0,.44,0,.79.44.88.22.06.52.1.83.18a1.37,1.37,0,0,1-.07.69c-.38,0-1.56-.06-2.36-.06-1.06,0-1.4.06-2.14.06a1.22,1.22,0,0,1,0-.69,7.5,7.5,0,0,0,.91-.18c.33-.1.4-.38.4-.79,0-.69,0-.9,0-1.54a2.44,2.44,0,0,0-.2-.78c-.24-.6-1-2.17-1.48-3.13-.37-.75-.61-1-.93-1.06a3.91,3.91,0,0,0-.79-.15,1.33,1.33,0,0,1,0-.69"/></svg>